<svg xmlns="http://www.w3.org/2000/svg" xmlns:xlink="http://www.w3.org/1999/xlink" width="500" zoomAndPan="magnify" viewBox="0 0 375 374.999991" height="500" preserveAspectRatio="xMidYMid meet" version="1.0"><defs><clipPath id="9fb42f2dc3"><path d="M 37.5 89.046875 L 337.5 89.046875 L 337.5 286.296875 L 37.5 286.296875 Z M 37.5 89.046875 " clip-rule="nonzero"/></clipPath></defs><g clip-path="url(#9fb42f2dc3)"><path fill="#000000" d="M 320.3125 89.554688 L 54.433594 89.554688 C 53.875 89.554688 53.316406 89.582031 52.761719 89.636719 C 52.207031 89.691406 51.65625 89.773438 51.109375 89.882812 C 50.5625 89.992188 50.023438 90.128906 49.488281 90.292969 C 48.953125 90.453125 48.429688 90.644531 47.914062 90.855469 C 47.398438 91.070312 46.894531 91.308594 46.402344 91.574219 C 45.910156 91.835938 45.433594 92.125 44.96875 92.433594 C 44.503906 92.746094 44.058594 93.078125 43.625 93.433594 C 43.195312 93.789062 42.78125 94.164062 42.386719 94.558594 C 41.992188 94.953125 41.617188 95.367188 41.265625 95.800781 C 40.910156 96.230469 40.578125 96.679688 40.269531 97.144531 C 39.957031 97.609375 39.671875 98.085938 39.410156 98.582031 C 39.144531 99.074219 38.90625 99.578125 38.695312 100.09375 C 38.480469 100.609375 38.292969 101.136719 38.128906 101.671875 C 37.96875 102.207031 37.832031 102.746094 37.722656 103.296875 C 37.613281 103.84375 37.53125 104.394531 37.476562 104.953125 C 37.421875 105.507812 37.390625 106.066406 37.390625 106.625 L 37.390625 268.96875 C 37.390625 269.527344 37.421875 270.085938 37.476562 270.640625 C 37.53125 271.199219 37.613281 271.75 37.722656 272.296875 C 37.832031 272.847656 37.96875 273.386719 38.128906 273.921875 C 38.292969 274.457031 38.480469 274.984375 38.695312 275.5 C 38.90625 276.015625 39.144531 276.519531 39.410156 277.011719 C 39.671875 277.507812 39.957031 277.984375 40.269531 278.449219 C 40.578125 278.914062 40.910156 279.363281 41.265625 279.792969 C 41.617188 280.226562 41.992188 280.640625 42.386719 281.035156 C 42.78125 281.429688 43.195312 281.804688 43.625 282.160156 C 44.058594 282.515625 44.503906 282.847656 44.96875 283.160156 C 45.433594 283.46875 45.910156 283.757812 46.402344 284.019531 C 46.894531 284.285156 47.398438 284.523438 47.914062 284.738281 C 48.429688 284.949219 48.953125 285.140625 49.488281 285.300781 C 50.023438 285.464844 50.5625 285.601562 51.109375 285.710938 C 51.65625 285.820312 52.207031 285.902344 52.761719 285.957031 C 53.316406 286.011719 53.875 286.039062 54.433594 286.039062 L 320.3125 286.039062 C 320.871094 286.039062 321.425781 286.011719 321.980469 285.957031 C 322.539062 285.902344 323.089844 285.820312 323.636719 285.710938 C 324.183594 285.601562 324.722656 285.464844 325.257812 285.300781 C 325.792969 285.140625 326.316406 284.953125 326.832031 284.738281 C 327.347656 284.523438 327.851562 284.285156 328.34375 284.019531 C 328.835938 283.757812 329.3125 283.46875 329.777344 283.160156 C 330.242188 282.847656 330.6875 282.515625 331.121094 282.160156 C 331.550781 281.804688 331.964844 281.433594 332.359375 281.035156 C 332.753906 280.640625 333.128906 280.226562 333.480469 279.796875 C 333.835938 279.363281 334.167969 278.914062 334.476562 278.449219 C 334.789062 277.984375 335.074219 277.507812 335.339844 277.015625 C 335.601562 276.519531 335.839844 276.015625 336.054688 275.5 C 336.269531 274.984375 336.457031 274.457031 336.617188 273.921875 C 336.78125 273.386719 336.917969 272.847656 337.027344 272.296875 C 337.136719 271.75 337.21875 271.199219 337.273438 270.640625 C 337.328125 270.085938 337.355469 269.527344 337.355469 268.96875 L 337.355469 106.625 C 337.355469 106.066406 337.328125 105.507812 337.273438 104.953125 C 337.21875 104.394531 337.136719 103.84375 337.027344 103.292969 C 336.917969 102.746094 336.78125 102.207031 336.617188 101.671875 C 336.457031 101.136719 336.269531 100.609375 336.054688 100.09375 C 335.839844 99.578125 335.601562 99.074219 335.339844 98.578125 C 335.074219 98.085938 334.789062 97.609375 334.476562 97.144531 C 334.167969 96.679688 333.835938 96.230469 333.480469 95.796875 C 333.128906 95.367188 332.753906 94.953125 332.359375 94.558594 C 331.964844 94.160156 331.550781 93.785156 331.121094 93.433594 C 330.6875 93.078125 330.242188 92.746094 329.777344 92.433594 C 329.3125 92.125 328.835938 91.835938 328.34375 91.574219 C 327.851562 91.308594 327.347656 91.070312 326.832031 90.855469 C 326.316406 90.640625 325.792969 90.453125 325.257812 90.292969 C 324.722656 90.128906 324.183594 89.992188 323.636719 89.882812 C 323.089844 89.773438 322.539062 89.691406 321.980469 89.636719 C 321.425781 89.582031 320.871094 89.554688 320.3125 89.554688 Z M 234.515625 187.796875 L 328.125 104.207031 C 328.382812 104.992188 328.515625 105.796875 328.527344 106.625 L 328.527344 268.96875 C 328.515625 269.796875 328.382812 270.601562 328.125 271.386719 Z M 320.300781 98.398438 C 320.617188 98.414062 320.925781 98.445312 321.234375 98.492188 L 192.808594 213.171875 C 192.4375 213.503906 192.035156 213.800781 191.609375 214.0625 C 191.183594 214.320312 190.738281 214.539062 190.273438 214.71875 C 189.804688 214.894531 189.328125 215.03125 188.835938 215.121094 C 188.34375 215.210938 187.851562 215.257812 187.351562 215.257812 C 186.851562 215.257812 186.355469 215.210938 185.867188 215.121094 C 185.375 215.03125 184.898438 214.894531 184.429688 214.71875 C 183.964844 214.539062 183.519531 214.320312 183.089844 214.0625 C 182.664062 213.800781 182.265625 213.503906 181.894531 213.171875 L 53.5 98.492188 C 53.808594 98.445312 54.121094 98.414062 54.433594 98.398438 Z M 46.625 271.386719 C 46.367188 270.601562 46.234375 269.796875 46.222656 268.96875 L 46.222656 106.625 C 46.234375 105.796875 46.367188 104.992188 46.625 104.207031 L 140.230469 187.796875 Z M 54.433594 277.203125 C 54.121094 277.1875 53.808594 277.15625 53.5 277.109375 L 146.859375 193.730469 L 176.042969 219.777344 C 176.816406 220.46875 177.644531 221.082031 178.53125 221.621094 C 179.414062 222.160156 180.34375 222.613281 181.308594 222.984375 C 182.277344 223.355469 183.273438 223.632812 184.292969 223.820312 C 185.308594 224.007812 186.335938 224.101562 187.375 224.101562 C 188.410156 224.101562 189.4375 224.007812 190.457031 223.820312 C 191.476562 223.632812 192.46875 223.355469 193.4375 222.984375 C 194.40625 222.613281 195.332031 222.160156 196.21875 221.621094 C 197.101562 221.082031 197.933594 220.46875 198.707031 219.777344 L 227.882812 193.722656 L 321.238281 277.101562 C 320.929688 277.148438 320.617188 277.179688 320.304688 277.195312 Z M 54.433594 277.203125 " fill-opacity="1" fill-rule="nonzero"/></g></svg>