<svg xmlns="http://www.w3.org/2000/svg" xmlns:xlink="http://www.w3.org/1999/xlink" width="500" zoomAndPan="magnify" viewBox="0 0 375 374.999991" height="500" preserveAspectRatio="xMidYMid meet" version="1.0"><defs><clipPath id="be9b97b2fb"><path d="M 14.640625 28.253906 L 360.390625 28.253906 L 360.390625 347 L 14.640625 347 Z M 14.640625 28.253906 " clip-rule="nonzero"/></clipPath></defs><g clip-path="url(#be9b97b2fb)"><path fill="#bf895c" d="M 14.640625 152.054688 C 14.640625 161.421875 16.015625 167.9375 21.125 182.730469 C 26.257812 197.597656 33.132812 209.492188 36.613281 209.492188 C 38.484375 209.492188 44.730469 217.320312 55.113281 232.695312 C 59.953125 239.867188 65.441406 250.609375 70.261719 262.355469 C 75.621094 275.410156 84.226562 301.152344 84.226562 304.128906 C 84.226562 305.59375 83.058594 309.351562 81.65625 312.398438 C 77.679688 321.027344 72.585938 337.917969 72.496094 342.78125 C 72.421875 346.480469 72.597656 346.972656 73.933594 346.972656 C 75.191406 346.972656 75.535156 346.316406 75.921875 343.054688 C 76.535156 337.960938 78.433594 332.25 81.679688 325.792969 C 84.042969 321.082031 84.679688 320.398438 88.214844 318.761719 C 96.816406 314.777344 100.605469 314.261719 121.476562 314.222656 L 140.894531 314.195312 L 149.269531 317.023438 C 153.90625 318.589844 161.03125 320.5625 165.246094 321.445312 C 169.464844 322.332031 180.394531 325.601562 189.59375 328.730469 C 198.796875 331.859375 208.71875 334.921875 211.628906 335.53125 C 226.257812 338.589844 251.339844 335.445312 275.039062 327.570312 C 287.578125 323.410156 290.945312 321.871094 301.78125 315.351562 C 305.765625 312.953125 309.871094 310.742188 310.910156 310.410156 C 314.171875 309.414062 324.679688 303.933594 324.679688 303.230469 C 324.679688 302.867188 321.777344 303.570312 318.15625 304.808594 C 309.75 307.6875 302.535156 309.191406 296.996094 309.21875 C 290.761719 309.246094 263.449219 312.871094 258.445312 314.332031 C 255.234375 315.265625 252.355469 315.453125 246.265625 315.105469 C 234.167969 314.414062 213.359375 311.066406 204.015625 308.304688 C 195.988281 305.929688 195.226562 305.839844 182.746094 305.878906 C 171.515625 305.90625 168.511719 306.191406 159.921875 308.054688 C 150.507812 310.089844 148.761719 310.214844 123.757812 310.699219 C 99.261719 311.175781 97.179688 311.320312 92.957031 312.875 C 90.496094 313.785156 88.351562 314.550781 88.214844 314.550781 C 88.078125 314.550781 88.5625 313.679688 89.273438 312.59375 C 91.03125 309.902344 102.707031 302.363281 112.71875 297.460938 C 124.089844 291.890625 152.117188 280.054688 159.386719 277.773438 C 169.652344 274.523438 175.109375 274.171875 207.070312 274.6875 C 244.328125 275.292969 240.914062 276.03125 270.984375 260.863281 C 283.164062 254.730469 293.933594 248.945312 294.972656 247.988281 C 296.320312 246.816406 297.785156 245.8125 299.359375 244.976562 C 300.734375 244.277344 301.675781 243.417969 301.453125 243.054688 C 300.996094 242.320312 298.964844 242.902344 295.195312 244.84375 C 292.039062 246.46875 277.585938 249.148438 265.921875 250.261719 C 257.167969 251.097656 253.742188 251.839844 243.886719 255.070312 C 230.699219 259.394531 224 260.515625 211.78125 260.515625 C 206.25 260.515625 197.179688 261.410156 185.660156 263.089844 C 170.730469 265.269531 167.238281 266.023438 163.011719 268.003906 C 157.796875 270.445312 145.878906 277.546875 141.5625 280.785156 C 140.203125 281.804688 134.027344 284.375 127.792969 286.511719 C 115.113281 290.863281 108.378906 294.050781 100.402344 299.464844 L 94.957031 303.15625 L 98.667969 294.820312 C 105.402344 279.664062 111.09375 271.1875 117.28125 267.09375 C 128.488281 259.6875 145.6875 252.011719 158.367188 248.8125 C 164.429688 247.273438 169.09375 246.71875 181.273438 246.160156 C 198.15625 245.367188 201.078125 244.707031 212.578125 239.085938 C 219.296875 235.800781 233.957031 226.257812 244.171875 218.515625 C 247.652344 215.882812 256.3125 208.097656 263.488281 201.160156 C 270.664062 194.222656 279.550781 185.660156 283.304688 182.066406 C 292.3125 173.46875 306.113281 152.96875 309.9375 142.523438 C 310.695312 140.492188 311.671875 138.570312 312.867188 136.761719 C 314.34375 134.558594 315.6875 132.28125 316.894531 129.917969 C 318.199219 127.378906 319.96875 124.253906 320.875 122.886719 C 323.921875 118.277344 320.523438 121 316.269531 126.585938 C 307.179688 138.515625 297.144531 146.316406 275.914062 157.945312 C 263.382812 164.804688 250.09375 176.402344 230.316406 197.746094 C 225.03125 203.4375 218.730469 208.28125 200.976562 220.296875 C 197.941406 222.347656 191.667969 225.449219 186.523438 227.417969 C 181.519531 229.351562 173.675781 232.863281 169.089844 235.238281 C 137.425781 251.578125 128.8125 256.128906 125.320312 258.339844 C 122.203125 260.308594 122.203125 260.308594 129.636719 251.75 C 132.148438 248.851562 136.21875 243.699219 138.617188 240.363281 C 144.835938 231.71875 159.285156 217.292969 169.070312 209.933594 C 180.003906 201.738281 185.136719 196.421875 196.242188 181.769531 C 206.289062 168.511719 213.128906 161.402344 230.742188 145.875 C 237.046875 140.320312 245.085938 132.472656 248.496094 128.578125 C 254.382812 121.835938 255.078125 121.292969 260.964844 118.945312 C 264.375 117.574219 272.6875 113.410156 279.382812 109.726562 C 286.082031 106.042969 296.347656 101.085938 302.140625 98.738281 C 307.933594 96.390625 314.652344 93.191406 316.996094 91.65625 C 323.511719 87.386719 332.769531 77.492188 340.09375 66.976562 C 344.792969 60.230469 348.695312 55.664062 353.558594 51.203125 C 357.324219 47.75 360.40625 44.441406 360.40625 43.84375 C 360.40625 42.167969 359.683594 42.492188 355.769531 45.796875 C 346.789062 53.375 339.96875 57.148438 328.882812 60.667969 C 315.113281 65.039062 291.585938 75.570312 283.445312 81.007812 C 275.300781 86.445312 268.792969 93.296875 264.28125 101.117188 C 262.054688 104.898438 259.53125 108.464844 256.703125 111.816406 C 254.492188 114.289062 249.847656 119.832031 246.277344 124.253906 C 238.144531 134.335938 232.675781 139.796875 222.714844 147.792969 C 213.148438 155.46875 205.609375 162.558594 200.527344 168.636719 C 198.46875 171.101562 196.832031 172.886719 196.832031 172.664062 C 196.832031 172.441406 197.347656 170.015625 197.960938 167.328125 C 198.570312 164.644531 200.089844 156.4375 201.328125 149.128906 C 203.6875 135.207031 205.648438 128.851562 210.027344 120.992188 C 213.324219 115.085938 217.144531 105.835938 221.917969 92.199219 C 225.9375 80.730469 226.628906 79.210938 233.722656 66.382812 C 236.410156 61.523438 239.328125 55.210938 240.265625 52.242188 C 241.75 47.527344 248.945312 32.597656 251.035156 29.902344 C 251.425781 29.398438 251.566406 28.761719 251.332031 28.527344 C 251.097656 28.292969 248.898438 31.136719 246.476562 34.835938 C 244.050781 38.535156 240.664062 42.957031 238.976562 44.625 C 237.289062 46.292969 231.832031 51.660156 226.886719 56.46875 C 217.550781 65.597656 210 74.621094 206.003906 81.421875 C 202.460938 87.457031 199.652344 96.578125 194.460938 118.914062 C 189.535156 140.085938 188.484375 147.75 188.449219 162.640625 C 188.425781 171.125 187.667969 176.746094 185.414062 185.121094 C 184.324219 189.167969 179.792969 193.824219 168.421875 202.601562 C 160.140625 208.988281 155.308594 213.769531 145.046875 225.734375 C 141.566406 229.796875 138.59375 233.019531 138.453125 232.878906 C 138.316406 232.742188 141.113281 226.894531 144.660156 219.933594 C 151.816406 205.863281 154.820312 197.085938 157.21875 183.238281 C 159.574219 169.554688 160.695312 164.804688 165.335938 149.011719 C 171.117188 129.320312 171.613281 126.089844 172.421875 102.816406 C 173.136719 82.214844 174.535156 69.332031 176.570312 64.519531 C 177.1875 63.070312 177.375 61.632812 176.988281 61.394531 C 176.082031 60.839844 174.390625 64.230469 172.804688 69.816406 C 172.074219 72.355469 171.167969 74.804688 170.753906 75.328125 C 169.320312 77.136719 167.941406 84.394531 167.941406 90.121094 C 167.941406 95.148438 167.386719 97.660156 164.066406 107.597656 C 161.9375 113.980469 158.207031 123.148438 155.792969 127.976562 C 149.140625 141.246094 147.535156 146.359375 146.242188 158.363281 C 145.625 164.089844 144.757812 170.003906 144.320312 171.453125 C 143.878906 172.902344 143.160156 177.800781 142.742188 182.371094 C 141.902344 191.566406 139.960938 198.175781 135.234375 207.964844 C 132.304688 214.027344 132.117188 214.820312 132.117188 220.988281 C 132.117188 224.609375 132.617188 229.21875 133.238281 231.285156 C 133.859375 233.347656 134.378906 235.660156 134.398438 236.433594 C 134.417969 237.203125 132.144531 240.3125 129.375 243.285156 C 117.695312 255.855469 99.820312 280.128906 90.636719 295.863281 C 89.15625 298.402344 88.324219 299.214844 87.976562 298.507812 C 87.695312 297.929688 87.058594 293.179688 86.5625 287.957031 C 86.054688 282.648438 84.425781 273.414062 82.863281 267.035156 C 80.507812 257.398438 80.074219 254.25 80.074219 246.839844 C 80.074219 236.269531 81.464844 230.15625 89.800781 204.054688 C 98.761719 175.984375 99.875 170.90625 103.222656 142.773438 C 104.871094 128.921875 105.511719 120.113281 105.511719 111.226562 C 105.511719 98.96875 105.511719 98.839844 108.5625 89.105469 C 111.4375 79.890625 113.441406 69.378906 112.332031 69.378906 C 112.050781 69.378906 111.199219 71.699219 110.429688 74.527344 C 108.371094 82.144531 98.644531 100.71875 93.296875 107.238281 C 90.785156 110.28125 85.988281 117.101562 82.546875 122.464844 C 66.515625 147.449219 62.871094 159.449219 62.71875 187.820312 C 62.636719 203.773438 63.558594 209.34375 68.308594 221.25 C 75.609375 239.574219 75.179688 237.855469 78.09375 260.210938 C 78.902344 266.449219 79.765625 272.8125 79.976562 274.277344 C 80.183594 275.746094 79.054688 273.019531 77.433594 268.167969 C 71.464844 250.398438 65.679688 239.089844 57.1875 228.574219 C 50.980469 220.886719 45.816406 212.957031 43.726562 207.902344 C 42.226562 204.285156 42.050781 202.429688 42.011719 190.898438 C 41.972656 178.132812 42.011719 177.8125 44.835938 168.054688 C 46.410156 162.609375 48.066406 154.984375 48.519531 151.121094 C 49.648438 141.484375 48.9375 111.878906 47.429688 104.492188 C 46.640625 100.648438 46.117188 92.488281 45.847656 79.722656 C 45.617188 69.269531 45.199219 59.828125 44.910156 58.792969 C 44.386719 56.910156 36.28125 42.78125 35.726562 42.78125 C 35.457031 42.78125 36.316406 44.875 39.167969 51.195312 C 40.953125 55.128906 42.269531 63 42.269531 69.886719 C 42.292969 79.335938 36.804688 94.402344 27.199219 111.226562 C 18.28125 126.890625 14.640625 138.71875 14.640625 152.054688 Z M 155.773438 315.4375 C 156.871094 315.398438 165.085938 316.398438 174.070312 317.667969 C 189.304688 319.820312 198.132812 321.769531 213.421875 326.359375 C 216.902344 327.402344 221.378906 328.273438 223.277344 328.273438 C 226.757812 328.273438 249.402344 325.488281 251.46875 324.804688 C 254.148438 323.921875 251.050781 323.941406 238.785156 324.898438 C 223.179688 326.113281 221.621094 325.917969 205.449219 320.707031 C 191.03125 316.078125 180.535156 314.066406 167.113281 313.34375 C 161.605469 313.050781 157.40625 312.550781 157.765625 312.238281 C 158.40625 311.671875 173.707031 308.789062 178.929688 308.25 C 185.625 307.558594 194.144531 308.667969 202.117188 311.222656 C 219.871094 316.960938 247.300781 319.953125 258.132812 317.347656 C 264.296875 315.871094 287.019531 313.03125 292.703125 313.03125 L 296.691406 313.03125 L 288.007812 318.3125 C 275.910156 325.632812 273.722656 326.652344 266.632812 328.308594 C 256.261719 330.730469 245.179688 331.746094 229.527344 331.722656 C 212.925781 331.691406 206.988281 330.675781 186.769531 324.402344 C 181.445312 322.726562 171.808594 320.0625 165.417969 318.449219 C 159.03125 316.839844 154.679688 315.480469 155.773438 315.441406 Z M 158.855469 273.664062 C 164.359375 270.550781 168.710938 269.183594 177.550781 267.796875 C 181.679688 267.148438 187.84375 266.121094 191.367188 265.503906 C 195.914062 264.699219 201.949219 264.429688 212.675781 264.558594 L 227.640625 264.742188 L 235.453125 261.882812 C 255.164062 254.648438 258.109375 253.789062 266.011719 252.964844 C 270.433594 252.507812 275.859375 251.667969 278.1875 251.089844 C 287.492188 248.773438 285.507812 250.3125 267.894531 259.074219 C 257.824219 264.101562 247.589844 268.710938 245.066406 269.359375 C 242.175781 270.117188 236.191406 270.664062 228.742188 270.847656 C 222.289062 271.007812 217.816406 270.964844 218.847656 270.753906 C 231.023438 268.292969 239.847656 265.886719 247.980469 262.816406 C 253.425781 260.769531 258.027344 258.902344 258.273438 258.664062 C 259.800781 257.132812 255.882812 257.984375 242.332031 262.121094 L 226.839844 266.859375 L 209.722656 267.460938 C 186.171875 268.300781 168.695312 270.894531 159.210938 274.960938 C 154.140625 277.140625 153.949219 276.441406 158.855469 273.667969 Z M 187.257812 230.933594 C 191.898438 228.949219 198.589844 225.40625 202.1875 223.023438 C 206.621094 220.167969 211.1875 217.546875 215.886719 215.15625 C 228.148438 209.085938 231.375 206.308594 242.957031 191.804688 C 258.449219 172.441406 262.949219 168.167969 273.644531 162.734375 C 282.269531 158.351562 298.890625 148.910156 302.558594 146.296875 C 303.574219 145.574219 304.558594 145.074219 304.699219 145.210938 C 304.835938 145.347656 302.058594 149.378906 298.574219 154.09375 C 295.089844 158.804688 290.339844 165.304688 288.109375 168.414062 C 285.875 171.523438 279.210938 179.078125 273.324219 185.171875 C 267.441406 191.269531 259.34375 199.683594 255.324219 203.917969 C 247.84375 211.757812 237.292969 220.144531 222.367188 230.109375 C 207.871094 239.789062 199.71875 242.839844 186.5625 243.515625 L 178.957031 243.898438 L 188.792969 240.855469 C 213.433594 233.339844 215.449219 232.238281 233.722656 216.367188 C 238.285156 212.402344 245.027344 206.632812 248.652344 203.617188 C 253.066406 199.820312 257.21875 195.757812 261.113281 191.429688 C 264.355469 187.753906 272.640625 179.234375 279.59375 172.433594 C 286.546875 165.628906 291.976562 159.863281 291.695312 159.597656 C 291.414062 159.328125 290.394531 159.621094 289.453125 160.25 C 285.851562 162.652344 268.144531 179.042969 252.78125 194.183594 C 240.96875 205.832031 234.359375 211.6875 227.636719 216.476562 C 208.140625 230.339844 193.265625 238.230469 181.257812 241.074219 C 177.542969 241.949219 179.226562 241.074219 186.90625 238.105469 C 201.617188 232.433594 214.675781 224.214844 223.421875 215.128906 C 229.488281 208.847656 229.085938 208.902344 221.183594 215.511719 C 211.453125 223.664062 203.285156 228.164062 184.660156 235.648438 C 179.007812 237.925781 172.195312 240.703125 169.550781 241.816406 C 166.90625 242.929688 164.183594 243.742188 163.496094 243.613281 C 161.902344 243.332031 176.535156 235.488281 187.257812 230.921875 Z M 268.105469 103.175781 C 275.75 89.949219 285.09375 82.355469 303.429688 74.460938 C 312.195312 70.691406 330.945312 64.113281 333.152344 64.046875 C 333.714844 64.046875 335.691406 63.210938 337.574219 62.195312 C 341.628906 60.03125 341.761719 60 340.808594 61.261719 C 340.425781 61.777344 338.085938 64.957031 335.632812 68.292969 C 330.242188 75.617188 321.625 84.328125 316.125 87.984375 C 313.890625 89.476562 307.789062 92.273438 302.570312 94.203125 C 291.847656 98.164062 283.53125 101.949219 275.324219 106.601562 C 272.28125 108.328125 269.546875 109.765625 269.308594 109.765625 C 268.628906 109.765625 275.613281 103.714844 281.917969 98.84375 C 298.054688 86.351562 311.503906 77.160156 315.457031 75.878906 C 320.023438 74.40625 328.433594 70.199219 331.472656 67.878906 C 334.859375 65.28125 332.5625 65.410156 327.199219 68.113281 C 323.785156 69.777344 320.269531 71.1875 316.65625 72.339844 C 312.742188 73.515625 309.261719 75.410156 303.539062 79.464844 C 299.261719 82.507812 292.234375 87.238281 287.992188 89.9375 C 283.210938 92.976562 277.085938 97.898438 272.011719 102.734375 L 263.789062 110.648438 Z M 193.3125 149.769531 C 193.480469 134.828125 193.652344 133.089844 195.882812 123.300781 C 197.191406 117.570312 199.308594 109.628906 200.546875 105.785156 C 203.335938 97.15625 213.976562 75.320312 218.472656 69.019531 C 221.261719 65.101562 235.707031 50.382812 236.757812 50.382812 C 236.960938 50.382812 236.671875 51.46875 236.105469 52.84375 C 235.539062 54.21875 232.1875 60.132812 228.601562 66.082031 C 222.839844 75.65625 221.589844 78.445312 217.367188 91.21875 C 213.335938 103.402344 202.464844 128.644531 201.609375 127.804688 C 200.585938 126.789062 206.429688 108.480469 210.925781 98.617188 C 212.378906 95.425781 213.402344 92.652344 213.207031 92.449219 C 212.292969 91.539062 210.542969 94.191406 206.460938 102.675781 C 201.65625 112.671875 199.144531 121.605469 197.179688 135.671875 C 196.503906 140.53125 195.621094 146.488281 195.195312 149.019531 C 194.773438 151.550781 194.140625 156.339844 193.78125 159.675781 C 193.273438 164.421875 193.171875 162.246094 193.3125 149.769531 Z M 144.386719 196.21875 C 143.023438 199.570312 142.109375 201.4375 142.363281 200.386719 C 142.621094 199.335938 143.820312 194.1875 145.019531 188.96875 C 147.300781 179.03125 148.6875 174.621094 148.785156 177.003906 C 148.890625 179.886719 150.09375 178.015625 152.476562 171.273438 C 153.832031 167.429688 155.285156 161.636719 155.679688 158.472656 C 156.238281 154.527344 157.089844 150.648438 158.230469 146.832031 C 159.261719 143.566406 159.757812 140.964844 159.355469 140.964844 C 158.472656 140.964844 156.1875 146.117188 152.984375 155.328125 C 151.625 159.242188 150.273438 162.664062 149.972656 162.941406 C 149.671875 163.214844 149.550781 159.785156 149.714844 155.289062 L 150.007812 147.128906 L 157.292969 132.851562 C 163.542969 120.597656 164.773438 117.5625 165.953125 111.488281 C 166.714844 107.570312 167.460938 104.546875 167.628906 104.707031 C 167.796875 104.871094 167.238281 111.832031 166.40625 120.152344 C 164.839844 135.816406 163.476562 142.167969 158.40625 156.996094 C 154.96875 167.082031 153.207031 174.039062 151.179688 185.480469 C 149.117188 197.15625 146.28125 207.816406 143.746094 213.476562 C 142.636719 215.9375 141.632812 217.769531 141.46875 217.609375 C 141.097656 217.238281 143.066406 208.542969 145.515625 199.769531 C 148.117188 190.417969 147.523438 188.542969 144.386719 196.21875 Z M 141.039062 205.21875 C 141.195312 205.375 140.792969 208.003906 140.132812 211.121094 C 139.472656 214.238281 138.628906 217.761719 138.25 219.027344 C 137.558594 221.308594 137.558594 221.308594 137.484375 218.261719 C 137.398438 215.511719 140.375 204.582031 141.023438 205.21875 Z M 78.339844 226.027344 C 77.847656 225.535156 79.59375 191.214844 80.472656 184.035156 C 81.253906 177.675781 85.808594 160.46875 89.507812 149.734375 C 90.382812 147.222656 91.921875 140.378906 92.941406 134.503906 C 93.957031 128.625 95.636719 120.800781 96.675781 117.0625 C 97.714844 113.324219 98.25 110.609375 97.878906 111.007812 C 96.4375 112.554688 90.207031 132.328125 88.742188 140.015625 C 87.878906 144.542969 85.164062 155.027344 82.671875 163.4375 C 76.035156 185.847656 74.921875 192.050781 74.378906 209.5625 L 73.917969 224.359375 L 71.050781 212.898438 C 67.5625 198.976562 66.324219 188.261719 66.863281 176.785156 C 67.441406 164.742188 69.304688 159.378906 81.117188 135.730469 C 90.179688 117.597656 91.394531 115.566406 96.878906 109.511719 C 100.164062 105.886719 102.949219 102.933594 103.113281 102.914062 C 103.277344 102.898438 103.171875 105.707031 102.894531 109.199219 C 102.621094 112.691406 101.898438 118.734375 101.300781 122.722656 C 100.703125 126.710938 99.503906 137.121094 98.632812 145.96875 C 96.183594 170.804688 95.375 174.457031 86.492188 200.792969 C 83.679688 209.203125 80.785156 218.3125 80.003906 221.167969 C 79.226562 224.019531 78.496094 226.1875 78.339844 226.027344 Z M 41.707031 94.617188 C 41.765625 93.949219 41.929688 94.617188 42.070312 96.070312 C 42.207031 97.523438 42.808594 102.667969 43.40625 107.527344 C 44.960938 120.074219 45.648438 145.53125 44.613281 152.054688 C 44.152344 154.953125 42.363281 161.660156 40.65625 166.886719 C 37.582031 176.296875 37.539062 176.566406 37.578125 187.441406 L 37.613281 198.46875 L 36.117188 194.28125 C 33.554688 187.082031 30.964844 173.273438 30.964844 166.917969 C 30.964844 159.882812 32.246094 152.632812 35.367188 142.046875 C 36.8125 136.917969 37.960938 131.71875 38.8125 126.453125 C 40.246094 116.820312 41.109375 101.105469 40.066406 103.320312 C 39.585938 104.675781 39.332031 106.074219 39.300781 107.511719 C 39.167969 113.871094 36.789062 125.496094 33.59375 135.503906 C 28.808594 150.445312 27.496094 158.183594 27.617188 170.691406 C 27.679688 178.378906 28.085938 182.421875 29.226562 186.683594 C 30.0625 189.800781 30.652344 192.472656 30.542969 192.589844 C 30.085938 193.085938 24.058594 178.234375 22.269531 172.214844 C 18.316406 158.941406 17.789062 150.445312 20.195312 139.074219 C 22.757812 126.980469 25.804688 120 34.007812 107.453125 C 38.183594 101.070312 41.644531 95.296875 41.707031 94.617188 Z M 41.707031 94.617188 " fill-opacity="1" fill-rule="nonzero"/></g><path fill="#bf895c" d="M 21.308594 153.941406 C 21.996094 153.941406 22.453125 152.523438 22.71875 149.550781 C 22.9375 147.148438 24.886719 139.835938 27.03125 133.378906 C 29.175781 126.925781 30.964844 121.332031 30.964844 121.015625 C 30.964844 119.132812 29.453125 121.234375 26.84375 126.742188 C 21.820312 137.335938 20.3125 142.351562 20.3125 148.429688 C 20.292969 152.5625 20.546875 153.941406 21.308594 153.941406 Z M 21.308594 153.941406 " fill-opacity="1" fill-rule="nonzero"/><path fill="#bf895c" d="M 39.824219 148.101562 C 39.488281 149.695312 39.40625 151.238281 39.640625 151.472656 C 40.5 152.332031 40.925781 150.964844 40.6875 148.121094 L 40.441406 145.148438 Z M 39.824219 148.101562 " fill-opacity="1" fill-rule="nonzero"/><path fill="#bf895c" d="M 74.222656 156.769531 C 68.6875 170.039062 67.503906 175.78125 68.6875 183.53125 C 69.527344 189.039062 71.238281 189.71875 71.238281 184.542969 C 71.238281 179.292969 73.890625 164.675781 76.128906 157.566406 C 77.152344 154.300781 77.6875 151.515625 77.324219 151.28125 C 76.964844 151.046875 75.585938 153.503906 74.222656 156.769531 Z M 74.222656 156.769531 " fill-opacity="1" fill-rule="nonzero"/></svg>