<svg xmlns="http://www.w3.org/2000/svg" xmlns:xlink="http://www.w3.org/1999/xlink" width="500" zoomAndPan="magnify" viewBox="0 0 375 374.999991" height="500" preserveAspectRatio="xMidYMid meet" version="1.0"><path fill="#ffd390" d="M 365.480469 199.253906 C 361.886719 191.710938 355.753906 187.761719 348.703125 186.28125 C 350.535156 184.589844 352.085938 182.546875 353.496094 180.21875 C 356.882812 174.648438 358.363281 168.09375 358.503906 161.605469 C 358.785156 148.28125 353.355469 134.816406 345.035156 124.59375 C 329.171875 105.0625 300.339844 105.277344 279.398438 117.191406 C 281.65625 105.910156 280.175781 93.644531 273.828125 84.195312 C 266.425781 73.054688 253.878906 67.132812 240.976562 65.089844 C 213.832031 60.859375 179.992188 69.953125 162.367188 92.019531 C 155.878906 100.058594 153.339844 108.800781 154.117188 117.824219 C 152.003906 116.273438 149.746094 114.863281 147.773438 113.664062 C 142.0625 110.351562 135.785156 108.09375 129.230469 107.179688 C 115.765625 105.347656 101.03125 109.71875 90.59375 118.460938 C 82.488281 125.226562 75.085938 135.449219 72.265625 145.671875 C 71.066406 149.902344 70.429688 155.050781 72.125 159.210938 C 72.195312 159.421875 72.335938 159.632812 72.40625 159.914062 C 39.128906 145.957031 0 200.664062 24.253906 230.207031 C 33.980469 242.050781 49.5625 246.5625 64.296875 248.535156 C 66.90625 269.332031 78.398438 287.453125 97.996094 296.335938 C 117.175781 305.078125 140.226562 304.160156 158.136719 292.8125 C 166.101562 287.734375 172.308594 281.035156 177.101562 273.28125 C 192.894531 296.476562 220.25 311.636719 248.378906 299.578125 C 265.582031 292.175781 285.675781 273.210938 288.777344 253.046875 C 304.992188 264.679688 329.878906 265.03125 346.800781 255.445312 C 365.550781 244.800781 375 219.066406 365.480469 199.253906 Z M 351.171875 235.984375 C 343.839844 246.136719 331.21875 249.664062 319.304688 249.171875 C 306.332031 248.605469 295.050781 242.121094 287.367188 231.828125 C 285.675781 229.570312 283.347656 228.796875 281.304688 229.007812 C 277.636719 228.371094 273.335938 231.402344 274.746094 235.84375 C 278.414062 247.054688 276.367188 256.996094 269.8125 266.65625 C 263.394531 276.03125 253.667969 284 243.089844 288.226562 C 217.992188 298.308594 193.175781 280.402344 181.894531 258.476562 C 179.355469 253.542969 173.082031 255.65625 171.320312 259.886719 C 162.15625 281.8125 139.453125 293.375 116.257812 290.203125 C 92.710938 287.03125 74.449219 268.558594 72.828125 244.585938 C 72.6875 241.980469 70.925781 240.429688 68.386719 240.144531 C 48.574219 237.890625 22.984375 228.9375 25.097656 204.683594 C 26.507812 188.328125 38.917969 172.113281 53.792969 165.554688 C 62.253906 161.816406 72.125 161.675781 79.878906 167.175781 C 80.867188 167.882812 82.136719 166.261719 81.21875 165.414062 C 80.726562 164.992188 80.300781 164.636719 79.808594 164.285156 C 79.667969 161.535156 77.835938 159.070312 77.835938 156.035156 C 77.765625 151.878906 79.386719 148 81.148438 144.332031 C 84.8125 136.789062 90.382812 129.246094 97.222656 124.3125 C 106.105469 117.894531 118.300781 114.652344 129.089844 116.839844 C 134.519531 117.964844 139.523438 120.222656 144.105469 123.253906 C 149.253906 126.636719 152.988281 131.644531 157.996094 135.027344 C 162.085938 137.777344 166.242188 132.558594 164.339844 128.683594 C 163.421875 126.777344 162.085938 125.015625 160.53125 123.324219 C 159.40625 103.019531 177.3125 87.085938 195.714844 80.105469 C 215.453125 72.632812 246.40625 68.898438 262.195312 86.523438 C 272.347656 97.800781 268.894531 112.820312 267.0625 126.285156 C 267.0625 126.355469 267.0625 126.425781 267.0625 126.496094 C 266.707031 126.847656 266.425781 127.132812 266.074219 127.484375 C 264.242188 129.457031 266.636719 132.84375 269.035156 131.289062 C 269.105469 131.21875 269.246094 131.148438 269.316406 131.078125 C 271.152344 132.417969 273.757812 132.347656 275.097656 129.667969 C 275.523438 128.894531 275.875 128.046875 276.226562 127.203125 C 295.121094 117.824219 321.207031 113.664062 335.660156 131.078125 C 342.003906 138.695312 346.164062 148.988281 346.445312 158.925781 C 346.800781 170.347656 340.949219 176.765625 333.191406 184.167969 C 330.9375 186.28125 331.640625 189.03125 333.542969 190.582031 C 333.96875 191.570312 334.882812 192.34375 336.363281 192.273438 C 360.335938 191.851562 362.097656 220.757812 351.171875 235.984375 Z M 351.171875 235.984375 " fill-opacity="1" fill-rule="nonzero"/></svg>