<svg xmlns="http://www.w3.org/2000/svg" xmlns:xlink="http://www.w3.org/1999/xlink" width="500" zoomAndPan="magnify" viewBox="0 0 375 374.999991" height="500" preserveAspectRatio="xMidYMid meet" version="1.0"><defs><clipPath id="6504d14fd5"><path d="M 37.5 37.5 L 337.5 37.5 L 337.5 338.25 L 37.5 338.25 Z M 37.5 37.5 " clip-rule="nonzero"/></clipPath></defs><g clip-path="url(#6504d14fd5)"><path fill="#000000" d="M 245.300781 249.476562 C 249.75 255.074219 244.398438 261.273438 241.851562 263.625 C 238.550781 266.773438 234.300781 269.324219 229.101562 271.273438 C 226.449219 272.273438 224.351562 272.875 222.351562 273.125 L 221.148438 273.273438 C 216.050781 273.824219 210.300781 273.324219 203.550781 271.824219 C 190.199219 268.976562 177.800781 260.875 165.601562 247.125 C 163.75 245.324219 149.851562 231.375 140.949219 211.726562 C 132 191.773438 130.898438 172.273438 130.800781 170.125 C 128.601562 151.375 130.851562 136.726562 137.449219 124.875 C 141.101562 118.375 144.898438 113.425781 149 109.925781 C 150.449219 108.625 152.351562 107.425781 154.898438 106.074219 C 159.648438 103.675781 164.300781 102.175781 168.648438 101.726562 C 171.398438 101.476562 180.648438 101.226562 181.851562 108.476562 L 183.050781 120.976562 C 183.601562 126.523438 184.800781 140.574219 184.800781 140.574219 C 185.699219 149.476562 184.648438 154.175781 176 155.375 C 175.351562 155.425781 174.699219 155.324219 173.898438 155.324219 C 171.949219 155.125 170.199219 155.023438 168.648438 155.023438 L 162.351562 155.074219 L 162.5 161.375 C 162.648438 168.425781 165.148438 186.574219 170.5 198.523438 C 175.449219 209.523438 186.898438 223.574219 192.949219 229.125 L 197.601562 233.375 L 201.800781 228.625 C 202.75 227.523438 203.800781 226.175781 204.398438 225.375 C 205.449219 223.976562 205.949219 223.273438 206.398438 222.925781 C 208.601562 221.023438 210.648438 219.976562 212.699219 219.773438 C 216.699219 219.375 219.699219 222.273438 223.199219 226.125 Z M 337.5 187.875 C 337.5 270.824219 270.351562 338.125 187.5 338.125 C 104.648438 338.125 37.5 270.824219 37.5 187.875 C 37.5 104.925781 104.648438 37.625 187.5 37.625 C 270.351562 37.625 337.5 104.925781 337.5 187.875 Z M 314.699219 187.875 C 314.699219 117.523438 257.75 60.476562 187.5 60.476562 C 117.25 60.476562 60.300781 117.523438 60.300781 187.875 C 60.300781 258.226562 117.25 315.273438 187.5 315.273438 C 257.75 315.273438 314.699219 258.226562 314.699219 187.875 Z M 314.699219 187.875 " fill-opacity="1" fill-rule="nonzero"/></g></svg>