<svg xmlns="http://www.w3.org/2000/svg" xmlns:xlink="http://www.w3.org/1999/xlink" width="500" zoomAndPan="magnify" viewBox="0 0 375 374.999991" height="500" preserveAspectRatio="xMidYMid meet" version="1.0"><defs><clipPath id="2aab2bc334"><path d="M 43 19 L 324 19 L 324 363 L 43 363 Z M 43 19 " clip-rule="nonzero"/></clipPath><clipPath id="101cd64aee"><path d="M 19.6875 327.851562 L 64.328125 -8.199219 L 355.023438 30.417969 L 310.386719 366.464844 Z M 19.6875 327.851562 " clip-rule="nonzero"/></clipPath><clipPath id="998717369e"><path d="M 19.6875 327.851562 L 64.328125 -8.199219 L 355.023438 30.417969 L 310.386719 366.464844 Z M 19.6875 327.851562 " clip-rule="nonzero"/></clipPath><clipPath id="d64261dac4"><path d="M 19.6875 327.851562 L 64.328125 -8.199219 L 355.023438 30.417969 L 310.386719 366.464844 Z M 19.6875 327.851562 " clip-rule="nonzero"/></clipPath><clipPath id="84166baf32"><path d="M 133 172 L 136 172 L 136 175 L 133 175 Z M 133 172 " clip-rule="nonzero"/></clipPath><clipPath id="a07b28a816"><path d="M 19.6875 327.851562 L 64.328125 -8.199219 L 355.023438 30.417969 L 310.386719 366.464844 Z M 19.6875 327.851562 " clip-rule="nonzero"/></clipPath><clipPath id="42b8463552"><path d="M 19.6875 327.851562 L 64.328125 -8.199219 L 355.023438 30.417969 L 310.386719 366.464844 Z M 19.6875 327.851562 " clip-rule="nonzero"/></clipPath><clipPath id="fd993e687f"><path d="M 19.6875 327.851562 L 64.328125 -8.199219 L 355.023438 30.417969 L 310.386719 366.464844 Z M 19.6875 327.851562 " clip-rule="nonzero"/></clipPath><clipPath id="97a07ee0c1"><path d="M 156 176 L 168 176 L 168 183 L 156 183 Z M 156 176 " clip-rule="nonzero"/></clipPath><clipPath id="a58de289b4"><path d="M 19.6875 327.851562 L 64.328125 -8.199219 L 355.023438 30.417969 L 310.386719 366.464844 Z M 19.6875 327.851562 " clip-rule="nonzero"/></clipPath><clipPath id="e77331ab59"><path d="M 19.6875 327.851562 L 64.328125 -8.199219 L 355.023438 30.417969 L 310.386719 366.464844 Z M 19.6875 327.851562 " clip-rule="nonzero"/></clipPath><clipPath id="b8d2bafeef"><path d="M 19.6875 327.851562 L 64.328125 -8.199219 L 355.023438 30.417969 L 310.386719 366.464844 Z M 19.6875 327.851562 " clip-rule="nonzero"/></clipPath><clipPath id="c3f03952a9"><path d="M 135 217 L 156 217 L 156 227 L 135 227 Z M 135 217 " clip-rule="nonzero"/></clipPath><clipPath id="043723c6b0"><path d="M 19.6875 327.851562 L 64.328125 -8.199219 L 355.023438 30.417969 L 310.386719 366.464844 Z M 19.6875 327.851562 " clip-rule="nonzero"/></clipPath><clipPath id="364e50adb2"><path d="M 19.6875 327.851562 L 64.328125 -8.199219 L 355.023438 30.417969 L 310.386719 366.464844 Z M 19.6875 327.851562 " clip-rule="nonzero"/></clipPath><clipPath id="b5d843469a"><path d="M 19.6875 327.851562 L 64.328125 -8.199219 L 355.023438 30.417969 L 310.386719 366.464844 Z M 19.6875 327.851562 " clip-rule="nonzero"/></clipPath><clipPath id="a6ac9d8473"><path d="M 200 138 L 206 138 L 206 149 L 200 149 Z M 200 138 " clip-rule="nonzero"/></clipPath><clipPath id="9cd6d5b3a8"><path d="M 19.6875 327.851562 L 64.328125 -8.199219 L 355.023438 30.417969 L 310.386719 366.464844 Z M 19.6875 327.851562 " clip-rule="nonzero"/></clipPath><clipPath id="00b99c9bea"><path d="M 19.6875 327.851562 L 64.328125 -8.199219 L 355.023438 30.417969 L 310.386719 366.464844 Z M 19.6875 327.851562 " clip-rule="nonzero"/></clipPath><clipPath id="cce49d3bae"><path d="M 19.6875 327.851562 L 64.328125 -8.199219 L 355.023438 30.417969 L 310.386719 366.464844 Z M 19.6875 327.851562 " clip-rule="nonzero"/></clipPath><clipPath id="9a34044cc2"><path d="M 166 234 L 173 234 L 173 258 L 166 258 Z M 166 234 " clip-rule="nonzero"/></clipPath><clipPath id="46b380896f"><path d="M 19.6875 327.851562 L 64.328125 -8.199219 L 355.023438 30.417969 L 310.386719 366.464844 Z M 19.6875 327.851562 " clip-rule="nonzero"/></clipPath><clipPath id="861d381dbe"><path d="M 19.6875 327.851562 L 64.328125 -8.199219 L 355.023438 30.417969 L 310.386719 366.464844 Z M 19.6875 327.851562 " clip-rule="nonzero"/></clipPath><clipPath id="562af83011"><path d="M 19.6875 327.851562 L 64.328125 -8.199219 L 355.023438 30.417969 L 310.386719 366.464844 Z M 19.6875 327.851562 " clip-rule="nonzero"/></clipPath><clipPath id="140847820e"><path d="M 177 237 L 181 237 L 181 252 L 177 252 Z M 177 237 " clip-rule="nonzero"/></clipPath><clipPath id="1caf6dfa34"><path d="M 19.6875 327.851562 L 64.328125 -8.199219 L 355.023438 30.417969 L 310.386719 366.464844 Z M 19.6875 327.851562 " clip-rule="nonzero"/></clipPath><clipPath id="d41ca8875e"><path d="M 19.6875 327.851562 L 64.328125 -8.199219 L 355.023438 30.417969 L 310.386719 366.464844 Z M 19.6875 327.851562 " clip-rule="nonzero"/></clipPath><clipPath id="deae612cf3"><path d="M 19.6875 327.851562 L 64.328125 -8.199219 L 355.023438 30.417969 L 310.386719 366.464844 Z M 19.6875 327.851562 " clip-rule="nonzero"/></clipPath><clipPath id="f9de7b9e20"><path d="M 237 150 L 268 150 L 268 167 L 237 167 Z M 237 150 " clip-rule="nonzero"/></clipPath><clipPath id="ac56ad4cc3"><path d="M 19.6875 327.851562 L 64.328125 -8.199219 L 355.023438 30.417969 L 310.386719 366.464844 Z M 19.6875 327.851562 " clip-rule="nonzero"/></clipPath><clipPath id="8d20a0423a"><path d="M 19.6875 327.851562 L 64.328125 -8.199219 L 355.023438 30.417969 L 310.386719 366.464844 Z M 19.6875 327.851562 " clip-rule="nonzero"/></clipPath><clipPath id="351599f6bb"><path d="M 19.6875 327.851562 L 64.328125 -8.199219 L 355.023438 30.417969 L 310.386719 366.464844 Z M 19.6875 327.851562 " clip-rule="nonzero"/></clipPath></defs><g clip-path="url(#2aab2bc334)"><g clip-path="url(#101cd64aee)"><g clip-path="url(#998717369e)"><g clip-path="url(#d64261dac4)"><path fill="#bf895c" d="M 247.429688 90.574219 C 248.046875 88.058594 249.804688 78.78125 251.308594 69.882812 C 254.351562 52.082031 254.960938 49.855469 261.03125 34.554688 C 265.441406 23.429688 265.953125 21.636719 265.054688 20.453125 C 263.386719 18.25 260.496094 20.214844 252.90625 28.734375 C 245.742188 36.777344 231.058594 56.222656 227.660156 62.160156 C 221.46875 72.992188 219.269531 80.523438 219.039062 91.675781 C 218.953125 95.921875 218.957031 99.992188 219.050781 100.671875 C 219.277344 102.335938 217.023438 102.992188 213.222656 102.375 C 211.136719 102.035156 210.191406 102.164062 209.128906 102.921875 C 208.011719 103.71875 207.542969 103.757812 206.679688 103.125 C 206.097656 102.703125 205.253906 102.5 204.820312 102.6875 C 203.226562 103.375 197.144531 109.046875 194.898438 111.941406 C 192.851562 114.597656 192.371094 114.925781 191.191406 114.535156 C 190.425781 114.285156 189.234375 113.445312 188.441406 112.601562 C 187.648438 111.757812 186.886719 111.082031 186.671875 111.035156 C 186.457031 110.988281 183.421875 110.242188 179.917969 109.371094 C 169.816406 106.859375 164.679688 107.820312 160.78125 112.945312 C 158.78125 115.582031 155.996094 122.316406 155.566406 125.5625 C 155.378906 126.972656 155.082031 128.105469 154.910156 128.082031 C 154.738281 128.058594 153.554688 127.050781 152.28125 125.828125 C 148.3125 122.039062 146.84375 121.269531 142.574219 120.753906 C 140.425781 120.492188 137.949219 120.398438 137.011719 120.539062 C 135.453125 120.777344 135.105469 120.503906 132.195312 116.746094 C 126.886719 109.878906 121.4375 105.933594 120.257812 108.089844 C 119.65625 109.183594 122.382812 119.925781 124.378906 124.34375 C 125.894531 127.683594 125.96875 128.207031 125.347656 131.019531 L 124.679688 134.070312 L 121.949219 130.96875 C 117.554688 125.972656 106.699219 114.789062 103.453125 111.910156 C 98.121094 107.179688 90.28125 102.5 76.523438 95.847656 C 74.515625 94.875 69.265625 91.992188 64.863281 89.445312 C 56.164062 84.410156 53.71875 83.679688 53.074219 85.898438 C 52.824219 86.761719 53.46875 88.347656 55.222656 91.1875 C 58.453125 96.421875 61.644531 103.21875 66.253906 114.691406 C 68.261719 119.695312 70.804688 125.472656 71.933594 127.632812 C 74.914062 133.300781 80.878906 141.195312 85.011719 144.953125 C 89.023438 148.585938 97.976562 155.070312 101.738281 157.058594 L 104.179688 158.34375 L 102.757812 160.023438 C 101.953125 160.980469 101.152344 161.699219 100.914062 161.667969 C 100.679688 161.636719 99.128906 160.679688 97.472656 159.546875 C 91.507812 155.480469 86.464844 152.996094 80.976562 151.480469 C 73.070312 149.277344 68.367188 148.796875 61.171875 149.449219 C 43.824219 151.035156 43.230469 151.140625 43.074219 152.558594 C 43.027344 152.902344 45.730469 155.53125 49.027344 158.367188 C 55.371094 163.832031 60.996094 167.445312 67.523438 170.265625 C 70.949219 171.746094 73.066406 172.195312 82.847656 173.519531 C 89.074219 174.347656 94.296875 175.199219 94.417969 175.371094 C 94.539062 175.546875 94.285156 176.769531 93.84375 178.09375 C 90.675781 187.566406 92.59375 199.066406 98.617188 206.6875 C 102.421875 211.5 105.101562 213.21875 110.386719 214.253906 C 116.621094 215.472656 122.679688 214.28125 133.835938 209.632812 C 136.992188 208.320312 141.71875 207.183594 151.160156 205.460938 C 151.65625 205.371094 151.511719 205.625 150.8125 206.058594 C 148.523438 207.484375 134.972656 211.894531 125.777344 214.214844 C 118.558594 216.03125 116.015625 216.941406 113.703125 218.53125 C 108.796875 221.894531 108.785156 221.96875 107.945312 240.273438 C 107.578125 248.367188 108.414062 251.433594 111.984375 255.066406 C 114.871094 257.996094 116.085938 260.25 117.042969 264.421875 C 117.835938 267.878906 118.707031 269.355469 120.808594 270.777344 C 121.558594 271.285156 121.984375 272.265625 121.992188 273.480469 C 122 274.929688 122.523438 275.875 124.140625 277.355469 C 126.171875 279.21875 126.636719 279.382812 133.59375 280.699219 C 141.328125 282.160156 145.75 284.058594 146.574219 286.273438 C 147.160156 287.855469 153.886719 292.597656 157.292969 293.828125 C 159.035156 294.457031 162.707031 295.140625 166.070312 295.464844 C 171.222656 295.957031 172.265625 295.878906 175.640625 294.738281 C 180.691406 293.035156 185.050781 289.890625 189.742188 284.554688 C 191.878906 282.125 194.28125 279.785156 195.128906 279.28125 L 196.664062 278.394531 L 196.589844 281.84375 C 196.5 286.058594 197.667969 292.367188 199.515625 297.667969 C 202.292969 305.648438 211.957031 320.488281 218.097656 326.195312 C 222.394531 330.191406 224.570312 331.558594 234.066406 336.234375 C 243.617188 340.945312 246.605469 342.800781 253.441406 348.238281 C 260.09375 353.527344 263.855469 355.8125 269.898438 358.21875 C 275.269531 360.34375 286.808594 363.332031 287.855469 362.863281 C 289.363281 362.175781 288.453125 360.382812 284.652344 356.535156 C 273.59375 345.34375 265.71875 333.027344 257.472656 314.101562 C 251.03125 299.296875 245.445312 289.683594 240.332031 284.640625 C 237.699219 282.03125 237.699219 282.03125 238.796875 280.761719 C 239.667969 279.824219 240.605469 278.964844 241.617188 278.183594 C 243.574219 276.6875 244.167969 274.371094 243.613281 270.410156 C 243.445312 269.214844 243.457031 268.128906 243.632812 268.015625 C 243.808594 267.90625 245.601562 269.410156 247.578125 271.367188 C 256.953125 280.597656 266.402344 286.375 282.476562 292.785156 C 287.351562 294.726562 288.804688 295.054688 297.128906 296.089844 C 304.148438 296.960938 307.199219 297.566406 309.800781 298.621094 C 314.363281 300.441406 318.195312 300.96875 318.816406 299.859375 C 319.25 299.085938 317.683594 296.972656 310.085938 288.0625 C 307.308594 284.800781 295.855469 273.851562 291.617188 270.414062 C 289.832031 268.953125 284.800781 265.402344 280.449219 262.507812 C 276.097656 259.613281 270.480469 255.304688 267.9375 252.914062 L 263.324219 248.574219 L 265.234375 246.804688 C 266.605469 245.589844 268.074219 244.503906 269.636719 243.542969 C 272.585938 241.796875 275.878906 238.242188 276.097656 236.578125 C 276.214844 235.703125 277.097656 235.054688 279.339844 234.210938 C 281.019531 233.585938 282.820312 232.472656 283.300781 231.78125 C 284.585938 229.921875 284.914062 226.460938 284.199219 222.269531 C 283.410156 217.585938 281.476562 213.65625 278.820312 211.300781 C 277.632812 210.25 275.449219 208.199219 273.945312 206.722656 C 272.4375 205.242188 270.328125 203.589844 269.242188 203.035156 C 268.15625 202.476562 267.308594 201.890625 267.347656 201.71875 C 267.445312 201.3125 274.71875 198.085938 278.398438 196.8125 C 284.398438 194.738281 287.242188 190.257812 286.472656 184.085938 C 284.339844 166.984375 283.085938 163.371094 277.882812 159.34375 C 273.976562 156.308594 272.347656 154.210938 271.523438 151.175781 C 271.089844 149.648438 270.550781 148.164062 269.902344 146.71875 L 268.886719 144.53125 L 271.152344 139.828125 C 273.726562 134.484375 275.640625 128.398438 277.808594 118.675781 C 280.738281 105.496094 282.625 101.875 290.851562 93.582031 C 297.542969 86.835938 299.058594 84.136719 301.222656 75.105469 C 302.15625 71.183594 303.382812 67.191406 303.953125 66.207031 C 304.761719 64.699219 305.46875 63.140625 306.070312 61.539062 C 307.230469 58.457031 309.085938 55.765625 314.863281 48.757812 C 318.425781 44.441406 322.722656 37.222656 323.03125 35.046875 C 323.226562 33.585938 322.402344 32.355469 321.085938 32.179688 C 319.324219 31.945312 290.082031 42.378906 285.101562 45.019531 C 278.515625 48.515625 271.277344 54.0625 267.054688 58.855469 C 260.570312 66.21875 258.246094 70.300781 248.773438 90.972656 C 247.601562 93.535156 246.578125 95.488281 246.476562 95.351562 C 246.375 95.21875 246.800781 93.097656 247.429688 90.574219 Z M 222.59375 92.363281 C 222.75 88.550781 222.800781 85.324219 222.695312 85.191406 C 222.265625 84.628906 223.15625 80.089844 224.589844 75.546875 C 226.667969 68.957031 231.015625 60.25 234.429688 55.828125 C 242.78125 45.015625 255.363281 30.101562 253.847656 32.804688 C 244.921875 48.761719 242.558594 52.472656 238.109375 57.492188 C 233.886719 62.25 231.59375 65.597656 229.621094 69.882812 C 227.234375 75.078125 226.507812 79.105469 225.976562 90.320312 C 225.703125 96.03125 225.308594 101.007812 225.09375 101.40625 C 224.882812 101.804688 224.234375 102.066406 223.605469 101.980469 C 222.265625 101.789062 222.21875 101.355469 222.59375 92.359375 Z M 244.585938 51.691406 C 244.328125 52.417969 243.304688 56.230469 242.324219 60.199219 C 240.953125 65.289062 239.304688 70.285156 237.378906 75.191406 C 234.550781 82.214844 234.144531 83.714844 233.289062 90.136719 C 232.769531 94.0625 232.359375 98.480469 232.386719 99.945312 L 232.417969 102.601562 L 228.234375 102.046875 L 228.429688 93.554688 C 228.539062 88.886719 228.628906 84.300781 228.632812 83.363281 C 228.644531 80.5 229.925781 75.390625 231.726562 71.050781 C 233.28125 67.300781 235.101562 64.429688 242.714844 53.667969 C 243.988281 51.871094 244.839844 50.964844 244.585938 51.683594 Z M 210.457031 106.25 C 211.363281 106.226562 212.289062 106.519531 212.464844 106.890625 C 213.4375 108.914062 211.277344 115.671875 207.761719 121.59375 L 206.445312 123.816406 L 208.773438 106.292969 Z M 161.230469 122.386719 C 163.050781 118.261719 166.355469 113.378906 167.253906 113.496094 C 167.511719 113.53125 166.957031 114.894531 166.003906 116.527344 C 163.554688 120.777344 162.238281 124.851562 162.222656 128.210938 C 162.207031 131.109375 162.59375 132.199219 167.214844 142.398438 C 169.246094 146.871094 172.941406 152.738281 173.472656 152.328125 C 173.667969 152.179688 172.886719 150.226562 171.738281 148 C 165.3125 135.554688 164.394531 132.167969 165.796875 126.238281 C 166.847656 121.800781 169.179688 116.914062 171.652344 113.976562 C 173.515625 111.757812 173.597656 111.730469 177.082031 111.9375 C 182.785156 112.277344 183.035156 112.496094 184.050781 118.019531 L 184.949219 122.875 L 185.125 119.144531 L 185.300781 115.417969 L 187.457031 116.609375 L 189.613281 117.796875 L 189.003906 122.507812 C 188.339844 127.636719 188.691406 130.054688 189.675781 127.121094 C 190.003906 126.136719 190.253906 125.132812 190.425781 124.109375 C 190.488281 123.722656 190.640625 123.375 190.882812 123.066406 C 191.125 122.761719 191.425781 122.527344 191.785156 122.375 C 192.445312 122.128906 194.28125 120.019531 195.835938 117.722656 C 197.550781 115.222656 199.394531 112.824219 201.371094 110.527344 L 204.058594 107.53125 L 204.210938 109.789062 C 204.296875 111.027344 203.804688 116.253906 203.125 121.378906 C 202.054688 129.4375 201.589844 131.464844 199.746094 136.179688 C 197.949219 140.785156 196.457031 146.355469 197.691406 143.835938 C 198.277344 142.636719 200.878906 137.980469 201.621094 136.800781 C 201.980469 136.230469 203.269531 133.855469 204.515625 131.464844 C 205.765625 129.074219 208.507812 124.304688 210.640625 120.804688 C 214.722656 114.109375 216.421875 110.132812 216.257812 107.660156 C 216.164062 106.234375 216.34375 106.125 219.496094 105.644531 C 221.792969 105.320312 224.097656 105.125 226.414062 105.054688 C 230.207031 104.976562 235.851562 106.15625 235.738281 107 C 235.703125 107.277344 233.824219 109.222656 231.546875 111.316406 C 229.09375 113.589844 226.796875 116.007812 224.644531 118.570312 C 221.753906 122.179688 215.453125 132.414062 214.445312 135.152344 C 213.925781 136.554688 214.089844 136.460938 215.640625 134.484375 C 216.640625 133.203125 218.363281 130.828125 219.519531 129.121094 C 220.992188 127.007812 222.574219 124.984375 224.265625 123.042969 C 227.433594 119.472656 238.636719 108.972656 239.800781 108.484375 C 241.15625 107.914062 245.785156 111.796875 247.433594 114.890625 L 248.902344 117.628906 L 247.21875 118.679688 C 237.527344 124.726562 228.269531 133.945312 220.582031 145.222656 C 218.953125 147.613281 216.902344 150.285156 216.027344 151.164062 C 213.625 153.566406 215.640625 152.761719 218.414062 150.203125 C 219.707031 149.007812 222.34375 146.011719 224.203125 143.597656 C 226.066406 141.1875 229.011719 137.582031 230.699219 135.652344 C 234.214844 131.679688 248.46875 120.386719 249.78125 120.558594 C 250.234375 120.621094 251.324219 121.722656 252.128906 122.949219 L 253.636719 125.222656 L 250.96875 126.847656 C 245.589844 130.089844 238.4375 135.644531 234.039062 139.988281 C 227.335938 146.601562 226.65625 148.195312 232.691406 143.164062 C 242.050781 135.359375 253.4375 127.257812 254.007812 128 C 254.582031 128.746094 253.925781 135.550781 252.898438 140.203125 L 251.878906 144.859375 L 248.917969 146.488281 C 247.300781 147.378906 244.167969 149.816406 242 151.878906 C 239.835938 153.941406 236.433594 156.945312 234.492188 158.515625 C 232.550781 160.085938 230.242188 162.402344 229.351562 163.675781 C 227.253906 166.695312 217.925781 177.296875 216.628906 178.101562 C 215.738281 178.664062 215.421875 178.570312 214.503906 177.476562 C 213.6875 176.566406 212.777344 175.765625 211.773438 175.070312 C 210.84375 174.4375 210.132812 173.792969 210.15625 173.605469 C 210.183594 173.414062 211.355469 172.113281 212.71875 170.75 C 214.265625 169.15625 215.574219 167.386719 216.644531 165.445312 C 218.230469 162.292969 221.515625 159.023438 225.265625 156.839844 C 228.027344 155.226562 230.207031 153.140625 229.234375 153.011719 C 228.554688 152.917969 220.1875 157.796875 216.832031 160.242188 C 215.519531 161.199219 212.953125 163.886719 211.0625 166.296875 C 206.324219 172.324219 206.167969 172.457031 204.410156 172.015625 C 202.605469 171.5625 202.605469 171.5625 205.757812 165.125 C 207.761719 161.027344 208.171875 159.734375 208.167969 157.195312 C 208.1875 153.738281 207.574219 153.15625 206.738281 155.875 C 206.246094 157.457031 204.277344 161.082031 200.660156 166.988281 C 200.089844 167.921875 199.242188 168.613281 198.757812 168.546875 C 198.023438 168.449219 197.972656 168.070312 198.488281 166.433594 C 199.863281 162.039062 200.960938 155.574219 200.523438 154.464844 C 200.171875 153.570312 200.003906 153.5 199.695312 154.140625 C 199.234375 155.101562 195.816406 164.648438 195.402344 166.128906 C 195.203125 166.835938 194.570312 167.203125 193.5625 167.191406 C 192.152344 167.175781 192.039062 167.015625 192.246094 165.074219 C 192.371094 163.917969 192.515625 162.8125 192.574219 162.613281 C 192.789062 161.792969 191.992188 150.347656 191.464844 146.710938 C 191.089844 144.105469 190.421875 142.199219 189.464844 140.988281 L 188.027344 139.175781 L 187.386719 141.125 C 186.875 142.691406 186.976562 143.488281 187.921875 145.320312 C 188.867188 147.148438 189.050781 148.578125 188.910156 152.503906 C 188.8125 155.203125 189.074219 158.867188 189.484375 160.617188 C 190.570312 165.230469 190.261719 165.417969 188.757812 161.050781 C 186.433594 154.300781 181.75 145.960938 178.925781 143.535156 C 177.253906 142.101562 175.984375 140.375 175.121094 138.347656 C 174.425781 136.710938 173.925781 135.976562 174.027344 136.738281 C 174.371094 139.328125 175.28125 141.332031 177.246094 143.769531 C 178.277344 145.035156 180.03125 148.609375 181.144531 151.683594 C 182.261719 154.757812 184.007812 159.503906 185.046875 162.261719 C 186.085938 165.019531 186.878906 167.636719 186.816406 168.113281 C 186.753906 168.585938 185.90625 169.566406 184.957031 170.261719 L 183.226562 171.558594 L 179.21875 168.078125 C 171.679688 161.527344 162.582031 149.359375 160.273438 142.746094 C 157.816406 135.667969 158.117188 129.460938 161.230469 122.371094 Z M 214.40625 187.292969 C 212.675781 187.910156 212.1875 187.894531 211.390625 187.175781 C 210.589844 186.457031 210.527344 185.648438 210.9375 182.5625 L 211.4375 178.796875 L 214.304688 181.441406 C 215.871094 182.882812 217.636719 184.726562 218.1875 185.496094 L 219.195312 186.917969 L 217.832031 186.738281 C 217.101562 186.640625 215.519531 186.894531 214.40625 187.292969 Z M 187.023438 217.136719 C 187.152344 216.164062 186.78125 214.277344 186.199219 212.984375 C 184.9375 210.152344 184.945312 209.8125 186.28125 208.363281 C 187.3125 207.246094 189.675781 207.171875 190.921875 208.21875 C 191.394531 208.613281 191.371094 209.09375 190.773438 210.175781 C 189.675781 212.214844 189.351562 215.730469 190.074219 217.695312 L 190.710938 219.433594 L 188.75 219.171875 C 186.917969 218.933594 186.800781 218.796875 187.023438 217.136719 Z M 174.402344 211.203125 C 174.4375 210.941406 175.148438 210.402344 176 210.003906 C 178.199219 208.941406 180.820312 209.882812 182.335938 212.257812 C 183.667969 214.347656 183.609375 217.234375 182.230469 217.578125 C 181.347656 217.785156 174.289062 212.039062 174.402344 211.203125 Z M 173.46875 199.074219 C 170.582031 198.769531 170.46875 198.695312 170.214844 196.964844 C 169.960938 195.234375 170.050781 194.65625 171.035156 192.445312 C 171.59375 191.191406 175.628906 190.035156 178.410156 190.328125 C 179.730469 190.472656 180.515625 191.042969 181.71875 192.75 C 183.875 195.804688 183.523438 198.863281 180.777344 200.945312 L 178.890625 202.390625 L 177.671875 200.898438 C 176.65625 199.652344 175.917969 199.335938 173.453125 199.074219 Z M 185.582031 182.617188 C 185.871094 184.4375 185.726562 185.242188 184.792969 187.035156 C 183.59375 189.335938 183.90625 189.296875 178.507812 187.863281 C 177.117188 187.496094 175.214844 187.359375 174.261719 187.554688 C 173.003906 187.8125 172.492188 187.730469 172.363281 187.246094 C 171.90625 185.492188 172.648438 183.503906 174.449219 181.613281 C 176.5625 179.394531 180.53125 177.3125 182.222656 177.539062 C 183.695312 177.730469 185.160156 179.949219 185.582031 182.617188 Z M 189.429688 178.972656 C 189.742188 179.386719 189.777344 179.824219 189.519531 180.023438 C 189.257812 180.222656 188.898438 179.964844 188.695312 179.511719 C 188.199219 178.382812 188.707031 178.003906 189.429688 178.972656 Z M 205.609375 189.320312 C 206.664062 188.511719 208.582031 188.585938 209.636719 189.480469 C 210.183594 189.945312 210.085938 190.523438 209.109375 192.632812 C 208.460938 194.035156 207.929688 194.914062 207.949219 194.554688 C 207.96875 194.195312 207.167969 193.226562 206.207031 192.4375 C 204.253906 190.828125 204.175781 190.425781 205.621094 189.320312 Z M 189.878906 189.519531 L 191.125 190.585938 L 189.828125 191.828125 C 189.101562 192.53125 188.457031 193.625 188.359375 194.375 C 188.128906 196.097656 186.84375 195.824219 185.710938 193.808594 C 185.191406 192.894531 184.785156 192.015625 184.808594 191.855469 C 184.828125 191.695312 185.679688 190.878906 186.730469 190.007812 C 188.59375 188.496094 188.6875 188.480469 189.890625 189.519531 Z M 186.179688 199.339844 C 186.625 199.382812 188.363281 202.945312 188.273438 203.621094 C 188.246094 203.851562 187.28125 204.296875 186.167969 204.59375 C 184.953125 204.921875 183.75 205.746094 183.234375 206.625 C 182.671875 207.5625 182.050781 207.96875 181.546875 207.730469 C 179.539062 206.792969 178.410156 206.09375 178.445312 205.832031 C 178.464844 205.6875 179.558594 205.050781 180.863281 204.421875 C 182.230469 203.757812 183.789062 202.425781 184.503906 201.285156 C 185.195312 200.207031 185.960938 199.316406 186.191406 199.339844 Z M 175.667969 202.75 C 176.757812 204.382812 176.976562 206.433594 176.042969 206.308594 C 175.59375 206.25 174.769531 206.621094 174.117188 207.183594 C 172.570312 208.496094 172.28125 208.378906 171.539062 206.152344 C 170.71875 203.699219 170.742188 203.621094 172.242188 202.464844 C 173.742188 201.3125 174.75 201.355469 175.679688 202.75 Z M 197.125 219.128906 C 194.089844 217.949219 193.222656 217.234375 192.792969 215.5625 C 192.320312 213.6875 192.597656 212.621094 193.796875 211.703125 C 194.472656 211.15625 195.0625 210.523438 195.5625 209.808594 C 196.054688 209.054688 196.898438 208.765625 198.378906 208.851562 C 200.246094 208.960938 200.710938 209.265625 202.359375 211.511719 C 204.515625 214.402344 204.839844 215.992188 203.75 218.027344 C 202.660156 220.0625 200.476562 220.425781 197.136719 219.128906 Z M 207.019531 212.074219 C 206.371094 210.765625 205.015625 209.03125 204.027344 208.242188 L 202.222656 206.808594 L 205.039062 204.757812 C 207.394531 203.054688 208.234375 202.761719 210.0625 203.003906 C 215.972656 203.789062 216.679688 210.472656 211.183594 213.722656 C 208.949219 215.078125 208.414062 214.867188 207.03125 212.078125 Z M 201.480469 203.566406 C 200.582031 205.144531 200.003906 205.609375 199.042969 205.480469 C 198.339844 205.386719 196.867188 205.636719 195.699219 206.046875 C 193.6875 206.75 193.5625 206.738281 192.550781 205.679688 C 191.867188 204.921875 191.578125 204.035156 191.679688 203.019531 C 191.765625 201.972656 191.617188 200.960938 191.234375 199.980469 C 190.53125 198.34375 191.1875 194.820312 192.402344 193.695312 C 192.847656 193.28125 194.570312 192.746094 196.238281 192.488281 C 201.457031 191.703125 205.351562 193.894531 205.5625 197.730469 C 205.652344 199.339844 205.417969 199.816406 204.164062 200.578125 C 203.355469 201.078125 202.148438 202.433594 201.492188 203.570312 Z M 217 202.339844 C 216.285156 201.339844 214.988281 200.253906 214.140625 199.9375 C 213.289062 199.621094 212.300781 199.230469 211.9375 199.082031 C 211.234375 198.765625 211.382812 196.605469 212.285156 193.90625 C 212.589844 192.988281 213.636719 191.566406 214.585938 190.773438 C 215.949219 189.640625 216.789062 189.390625 218.519531 189.621094 C 222.714844 190.179688 223.558594 193.964844 220.847656 200.042969 C 218.992188 204.191406 218.539062 204.460938 217 202.339844 Z M 202.308594 188.199219 C 202.039062 188.695312 201.492188 189.050781 201.085938 188.996094 C 200.253906 188.886719 200.230469 187.871094 201.03125 186.914062 C 201.78125 186.027344 202.878906 187.148438 202.3125 188.1875 Z M 198.382812 186.320312 C 197.21875 187.5 196.457031 187.796875 195.042969 187.609375 C 191.539062 187.144531 189.664062 182.71875 192.242188 181.015625 C 193.644531 180.089844 197.460938 179.390625 198.410156 179.890625 C 198.820312 180.109375 199.316406 181.292969 199.519531 182.542969 C 199.859375 184.589844 199.761719 184.910156 198.386719 186.296875 Z M 208.367188 181.394531 C 208.492188 182.582031 206.53125 185.78125 205.722656 185.671875 C 205.101562 185.589844 203.875 183.449219 203.296875 181.464844 C 202.445312 178.523438 202.742188 177.117188 204.222656 176.925781 C 205.703125 176.738281 208.140625 179.328125 208.382812 181.382812 Z M 190.179688 174.453125 C 188.65625 172.464844 188.726562 172.171875 190.917969 171.304688 C 193.109375 170.433594 195.417969 170.671875 197.789062 172.050781 C 200.015625 173.335938 199.890625 174.558594 197.417969 175.675781 C 194.710938 176.875 191.660156 176.355469 190.191406 174.445312 Z M 127.402344 123.996094 C 126.25 121.816406 123.203125 112.566406 123.546875 112.300781 C 123.675781 112.207031 124.417969 112.566406 125.140625 113.078125 C 126.953125 114.347656 132.167969 121.097656 132.046875 122 C 131.847656 123.484375 130.824219 123.117188 129.464844 121.074219 C 127.183594 117.660156 126.578125 118.398438 128.402344 122.367188 C 129.761719 125.324219 128.867188 126.765625 127.402344 123.996094 Z M 67.613281 96.386719 C 69.566406 97.597656 75.671875 100.851562 81.113281 103.554688 C 86.558594 106.253906 93.078125 109.921875 95.53125 111.617188 C 99.46875 114.335938 108.0625 122.292969 117.386719 131.851562 C 118.878906 133.386719 121.027344 135.058594 122.066406 135.5 C 123.425781 136.078125 123.9375 136.628906 123.832031 137.410156 C 123.652344 138.777344 122.925781 138.648438 118.164062 136.398438 C 112.84375 133.882812 108.902344 130.789062 102.210938 123.875 C 97.816406 119.359375 94.785156 116.835938 88.792969 112.792969 C 80.097656 106.921875 76.808594 105.832031 84.355469 111.324219 C 86.988281 113.238281 91.617188 117.175781 94.589844 120.035156 C 110.074219 134.90625 116.09375 139.6875 119.964844 140.203125 C 120.957031 140.335938 121.761719 140.683594 121.726562 140.972656 C 121.589844 141.980469 118.484375 143.320312 116.191406 143.347656 C 113.179688 143.398438 107.183594 140.242188 101.417969 135.574219 C 87.1875 124.070312 86.433594 123.332031 80.34375 115.390625 C 77.035156 111.066406 71.949219 104.664062 68.960938 101.050781 C 65.96875 97.4375 63.679688 94.46875 63.8125 94.367188 C 63.945312 94.265625 65.648438 95.171875 67.613281 96.386719 Z M 89.777344 143.335938 C 85.75 139.976562 80.378906 133.871094 77.460938 129.339844 C 74.722656 125.089844 58.757812 93.46875 59.148438 93.054688 C 59.246094 92.949219 60.269531 93.769531 61.449219 94.902344 C 62.628906 96.039062 67.65625 102.070312 72.667969 108.371094 C 77.679688 114.671875 82.761719 120.789062 83.980469 122.007812 C 85.195312 123.226562 88.652344 126.886719 91.679688 130.164062 C 94.703125 133.441406 98.488281 137.160156 100.105469 138.449219 C 102.945312 140.710938 111.71875 145.230469 113.808594 145.507812 C 114.601562 145.613281 114.789062 146.167969 114.742188 148.289062 C 114.707031 149.78125 114.628906 151 114.558594 151.0625 C 114.492188 151.128906 111.644531 149.597656 108.222656 147.675781 C 104.800781 145.753906 100.925781 143.597656 99.597656 142.886719 C 97.722656 141.816406 95.941406 140.609375 94.25 139.265625 C 90.496094 136.269531 89.367188 136.464844 92.5625 139.558594 C 95.625 142.53125 110.875 152.988281 112.46875 153.210938 C 113.109375 153.300781 113.703125 153.527344 114.242188 153.886719 C 115.070312 154.582031 111.050781 157.449219 109.535156 157.246094 C 108.496094 157.109375 94.28125 147.101562 89.777344 143.335938 Z M 95.4375 172.03125 C 94.417969 171.410156 90.253906 170.632812 81.882812 169.503906 L 69.800781 167.871094 L 64.566406 165.328125 C 60.015625 163.121094 49.9375 157.183594 50.402344 156.984375 C 50.5 156.941406 53.011719 157.410156 56.015625 158.03125 C 60.003906 158.9375 63.925781 160.070312 67.78125 161.429688 C 71.234375 162.675781 75.390625 163.855469 76.929688 164.058594 L 79.761719 164.40625 L 76.609375 162.894531 C 67.039062 158.300781 63.890625 157.175781 57.144531 155.941406 L 50.335938 154.695312 L 54.273438 154.5 C 57.09375 154.316406 59.898438 153.988281 62.683594 153.515625 C 66.09375 152.914062 68.355469 152.882812 72.226562 153.398438 C 78.96875 154.292969 82.285156 155.433594 89.742188 159.402344 C 93.175781 161.230469 97.035156 163.015625 98.371094 163.375 C 100.679688 164.015625 100.769531 164.121094 100.539062 165.875 C 100.257812 167.980469 99.929688 168.054688 97.410156 166.589844 C 94.390625 164.84375 91.386719 164.230469 86.058594 164.277344 L 80.890625 164.320312 L 85.761719 165.398438 C 88.804688 166.089844 91.753906 167.058594 94.613281 168.304688 C 97.917969 169.855469 98.519531 170.332031 98.246094 171.183594 C 97.714844 172.816406 97.066406 173.019531 95.4375 172.03125 Z M 139.683594 205.242188 C 134.1875 207.824219 128.457031 209.691406 122.492188 210.839844 C 111.898438 212.824219 104.886719 210.792969 99.46875 204.207031 C 97.5 201.8125 97.398438 201.5625 98.75 202.414062 C 103.152344 205.199219 108.03125 205.859375 118.042969 205.035156 C 122.671875 204.65625 125.5625 203.628906 121.507812 203.800781 C 118.949219 203.910156 104.617188 202 102.574219 201.269531 C 101.167969 200.6875 99.800781 200.023438 98.472656 199.28125 C 95.597656 197.703125 95.433594 197.355469 95.125 192.203125 C 95.027344 190.539062 97.097656 178.992188 97.601562 178.375 C 98.222656 177.609375 103.148438 179.324219 110.761719 182.914062 C 120.78125 187.636719 123.894531 188.765625 132.191406 190.695312 C 140.492188 192.621094 143.148438 192.527344 135.9375 190.558594 C 127.96875 188.382812 122.578125 186.121094 109.0625 179.285156 C 105.320312 177.390625 101.597656 175.75 100.761719 175.636719 C 99.015625 175.40625 99.019531 175.460938 100.394531 171.488281 C 101.3125 168.84375 101.621094 168.460938 102.707031 168.605469 C 106.632812 169.125 117.175781 173.90625 124.550781 178.503906 C 129.808594 181.785156 132.675781 183.113281 132.207031 182.050781 C 132.027344 181.65625 131.730469 181.421875 131.304688 181.34375 C 130.539062 181.242188 127.589844 179.25 122.464844 175.363281 C 116.273438 170.671875 109.125 167.214844 104.308594 166.574219 C 102.292969 166.308594 102.351562 165.304688 104.496094 163.355469 C 106.402344 161.628906 109.65625 161.164062 115.046875 161.878906 C 118.488281 162.335938 119.480469 162.753906 123.15625 165.140625 C 125.460938 166.644531 128.316406 168.675781 129.503906 169.660156 C 132.921875 172.46875 132.0625 171.257812 128.074219 167.648438 C 124.179688 164.121094 119.507812 160.800781 116.308594 159.28125 C 114.152344 158.257812 114.152344 158.257812 117.734375 156.941406 C 118.101562 156.804688 120.113281 157.863281 122.160156 159.269531 C 125.0625 161.160156 128.066406 162.878906 131.167969 164.421875 C 134.066406 165.851562 137.105469 167.703125 137.96875 168.558594 C 140.105469 170.6875 144.089844 173.769531 147.042969 175.578125 L 149.554688 177.113281 L 148.640625 175.765625 C 148.144531 175.03125 145.984375 173.324219 143.871094 171.992188 C 141.328125 170.320312 138.941406 168.449219 136.714844 166.371094 C 133.5 163.257812 131.410156 161.828125 122.5625 156.691406 C 118.957031 154.597656 118.265625 153.964844 117.992188 152.480469 C 117.472656 149.644531 117.472656 146.554688 117.992188 146.625 C 118.253906 146.660156 120.742188 148.375 123.550781 150.472656 C 128.589844 154.207031 138.371094 160.464844 137.433594 159.359375 C 134.785156 156.226562 130.648438 152.722656 126.382812 149.992188 C 123.535156 148.171875 120.84375 146.109375 120.367188 145.386719 C 119.503906 144.070312 119.503906 144.070312 122.078125 141.914062 C 123.503906 140.71875 125.183594 138.8125 125.839844 137.648438 C 126.496094 136.488281 127.191406 135.566406 127.390625 135.59375 C 128.070312 135.683594 135.40625 145.863281 140.324219 153.542969 C 145.132812 161.050781 148.183594 165.183594 148.996094 165.289062 C 149.226562 165.320312 148.871094 164.582031 148.203125 163.640625 C 147.53125 162.699219 144.269531 157.050781 140.925781 151.082031 C 137.582031 145.113281 133.492188 138.5625 131.816406 136.539062 L 128.761719 132.859375 L 129.742188 130.484375 C 131.324219 126.652344 132.730469 124.550781 133.625 124.667969 C 135.015625 124.851562 138.296875 129.171875 141.898438 135.5625 C 146.3125 143.386719 151.589844 151.648438 152.226562 151.730469 C 152.53125 151.773438 152.582031 151.351562 152.359375 150.738281 C 151.5 148.449219 141.386719 129.746094 139.214844 126.421875 C 136.398438 122.089844 136.679688 122.078125 145.378906 126.015625 C 154.078125 129.957031 154.53125 130.378906 154.808594 134.621094 C 155.058594 138.667969 155.953125 141.472656 158.859375 147.285156 C 160.023438 149.613281 162.265625 154.242188 163.863281 157.585938 C 167.136719 164.460938 170.449219 168.667969 175.363281 172.175781 C 177.210938 173.496094 178.699219 174.722656 178.675781 174.910156 C 178.648438 175.097656 177.574219 175.785156 176.261719 176.449219 C 174.441406 177.378906 173.558594 177.523438 172.425781 177.070312 C 171.601562 176.753906 168.914062 173.875 166.277344 170.480469 C 163.683594 167.144531 161.46875 164.308594 161.316406 164.125 C 161.167969 163.941406 161.855469 165.660156 162.863281 167.976562 C 164.929688 172.722656 166.882812 175.613281 169.375 177.609375 C 170.335938 178.378906 171.21875 179.089844 171.296875 179.164062 C 171.742188 179.574219 168.867188 183.015625 168.128906 182.957031 C 167.550781 182.90625 167.492188 183 167.929688 183.261719 C 168.316406 183.5 168.5 183.84375 168.488281 184.292969 C 168.441406 184.644531 168.757812 185.953125 169.175781 187.125 C 169.59375 188.300781 169.769531 189.378906 169.554688 189.46875 C 168.421875 189.9375 160.492188 189.164062 158.363281 188.375 C 155.773438 187.417969 142.710938 184.867188 142.652344 185.304688 C 142.632812 185.449219 145.117188 186.199219 148.15625 186.96875 C 151.195312 187.742188 155.246094 189.042969 157.140625 189.859375 C 159.285156 190.773438 161.480469 191.535156 163.726562 192.148438 C 166.511719 192.847656 166.832031 193.070312 166.535156 194.066406 C 166.1875 195.226562 166.667969 195.164062 151.03125 195.980469 C 147.574219 196.230469 144.160156 196.746094 140.789062 197.539062 C 136.933594 198.488281 134.277344 198.769531 130.828125 198.585938 C 126.757812 198.367188 126.382812 198.425781 128.054688 199.027344 C 130.976562 200.078125 137.269531 200.175781 141.972656 199.238281 C 147.394531 198.160156 149.050781 198.027344 158.8125 197.894531 C 166.8125 197.78125 166.871094 197.792969 167.796875 198.972656 C 168.726562 200.152344 168.730469 200.160156 165.984375 200.40625 C 164.46875 200.542969 160.445312 200.828125 157.011719 201.042969 C 149.007812 201.5625 146.183594 202.246094 139.683594 205.242188 Z M 132.320312 276.300781 C 128.84375 275.632812 125.75 274.777344 125.386719 274.390625 C 124.109375 273.011719 124.929688 271.804688 127.570312 271.179688 C 131.488281 270.261719 137.414062 265.53125 140.941406 260.515625 C 142.585938 258.191406 143.671875 256.25 143.371094 256.210938 C 143.066406 256.171875 141.363281 257.640625 139.578125 259.484375 C 135.425781 263.777344 131.75 266.441406 127.949219 267.917969 C 123.621094 269.605469 122.394531 268.859375 120.378906 263.375 L 118.828125 259.175781 L 122.5 257.96875 C 129.328125 255.734375 131.816406 253.550781 138.046875 244.320312 C 141.078125 239.824219 143.335938 236.257812 143.0625 236.359375 C 142.789062 236.464844 140.851562 238.675781 138.769531 241.222656 C 131.925781 249.574219 128.167969 252.765625 121.671875 255.734375 C 120.308594 256.355469 118.796875 256.824219 118.339844 256.765625 C 117.292969 256.625 113.058594 252.617188 113.175781 251.875 C 113.214844 251.582031 115.179688 250.308594 117.589844 249 C 120 247.691406 123.007812 245.90625 124.378906 244.980469 L 126.832031 243.308594 L 122.132812 245.027344 C 119.554688 245.972656 117.035156 247.050781 114.570312 248.261719 C 112.96875 249.109375 111.59375 249.757812 111.449219 249.738281 C 110.679688 249.636719 109.976562 245.921875 110.289062 243.570312 L 110.648438 240.847656 L 115.382812 238.085938 C 120.230469 235.257812 124.425781 232.015625 123.984375 231.4375 C 123.710938 231.082031 113.464844 236.589844 112.152344 237.796875 C 110.921875 238.933594 110.441406 237.996094 110.816406 235.171875 C 111.164062 232.558594 111.261719 232.449219 115.378906 229.894531 C 117.695312 228.460938 122.191406 226.277344 125.394531 225.027344 C 128.597656 223.773438 130.757812 222.699219 130.210938 222.625 C 128.167969 222.332031 120.085938 224.714844 115.917969 226.835938 C 113.523438 228.058594 111.484375 229.035156 111.371094 229.019531 C 110.996094 228.96875 111.199219 225.320312 111.660156 223.734375 C 111.917969 222.84375 112.980469 221.460938 114.058594 220.589844 C 115.136719 219.722656 117.246094 218.804688 118.886719 218.5 C 129.855469 216.457031 140.40625 213.191406 146.8125 209.847656 C 150.140625 208.195312 153.585938 206.839844 157.144531 205.769531 C 160.246094 204.882812 163.667969 203.757812 164.832031 203.246094 C 167.539062 202.046875 168.324219 202.195312 168.101562 203.871094 C 168.050781 204.289062 167.890625 204.664062 167.628906 204.996094 C 167.367188 205.328125 167.042969 205.566406 166.648438 205.71875 C 164.527344 206.511719 152.242188 213.59375 148.886719 215.953125 L 145.835938 218.09375 L 149.960938 216.511719 C 152.21875 215.648438 157.324219 213.355469 161.253906 211.445312 C 169.046875 207.652344 169.886719 207.339844 169.769531 208.234375 C 169.726562 208.550781 168.566406 209.285156 167.15625 209.867188 C 164.621094 210.929688 158.730469 215.25 160.847656 214.480469 C 161.488281 214.253906 163.875 213.136719 166.097656 212.023438 C 168.320312 210.910156 170.4375 210.015625 170.75 210.058594 C 171.441406 210.148438 166.972656 214.292969 162.015625 218.160156 C 156.84375 222.191406 146.402344 227.859375 139.292969 230.492188 C 135.988281 231.714844 133.605469 232.847656 133.953125 233.023438 C 135.070312 233.5625 147.351562 229.117188 154.921875 225.433594 C 161.410156 222.273438 165.828125 219.277344 169.839844 215.3125 C 170.644531 214.515625 171.335938 214.007812 171.441406 214.144531 C 171.746094 214.773438 172.007812 215.417969 172.222656 216.082031 C 172.8125 217.769531 172.792969 217.804688 169.765625 219.667969 C 168.097656 220.699219 165.097656 223.359375 163.128906 225.546875 C 161.160156 227.734375 157.957031 230.921875 156.042969 232.589844 C 154.132812 234.257812 152.683594 235.820312 152.847656 236.023438 C 153.007812 236.230469 157.730469 232.8125 163.300781 228.445312 C 170.445312 222.847656 173.828125 220.527344 174.691406 220.644531 C 175.910156 220.804688 175.902344 220.828125 173.773438 223.742188 C 172.238281 225.765625 170.578125 227.683594 168.792969 229.492188 C 165.734375 232.570312 161.773438 238.164062 159.582031 242.554688 C 158.816406 244.054688 157.433594 248.097656 156.507812 251.476562 C 155.585938 254.855469 154.292969 258.679688 153.660156 259.90625 C 151.992188 263.164062 147.578125 268.628906 142.78125 273.367188 L 138.601562 277.496094 Z M 144.511719 282.097656 C 143.441406 281.316406 142.15625 280.65625 141.601562 280.582031 C 140.089844 280.378906 140.597656 279.316406 143.554688 276.527344 C 145.03125 275.125 147.375 272.972656 148.707031 271.785156 C 150.171875 270.476562 152.105469 267.816406 153.53125 265.132812 C 154.851562 262.648438 156.027344 260.816406 156.179688 261.011719 C 156.480469 261.40625 155.683594 265.097656 154.410156 269.242188 C 153.921875 270.78125 152.453125 273.746094 151.128906 275.804688 C 149.804688 277.863281 148.199219 280.449219 147.570312 281.535156 L 146.433594 283.511719 Z M 188.949219 278.765625 C 188.710938 278.589844 188.378906 277.09375 188.21875 275.476562 C 187.78125 271.050781 183.6875 259.054688 183.386719 261.3125 C 183.402344 262.050781 183.484375 262.777344 183.632812 263.5 C 183.789062 264.445312 184.285156 267.339844 184.71875 269.953125 C 185.1875 273.003906 185.453125 276.074219 185.511719 279.160156 C 185.523438 284.324219 184.992188 285.3125 180.324219 288.796875 L 177.78125 290.695312 L 178.824219 288.597656 C 180.433594 285.394531 181.589844 279.753906 181.566406 275.226562 C 181.550781 272.113281 181.085938 269.945312 179.675781 266.296875 C 178.070312 262.144531 176.421875 259.183594 176.285156 260.207031 C 176.261719 260.378906 176.589844 261.894531 177.015625 263.605469 C 179.015625 271.589844 179.113281 273.214844 177.996094 280.074219 C 177.082031 285.703125 176.679688 287 175.214844 289.179688 C 172.621094 293.027344 171.042969 293.660156 165.984375 292.882812 C 163.6875 292.535156 161.605469 291.988281 161.351562 291.679688 C 161.097656 291.367188 161.554688 290.132812 162.679688 288.527344 C 165.113281 285 167.398438 277.601562 167.6875 272.316406 C 168.042969 265.863281 167.328125 259.390625 166.246094 259.246094 C 165.855469 259.195312 165.492188 261.433594 165.105469 266.226562 C 164.710938 271.335938 164.125 274.699219 163.039062 278.40625 C 161.539062 283.53125 158.742188 289.492188 157.574219 290.046875 C 156.527344 290.550781 150.71875 288.4375 149.402344 287.074219 C 148.304688 285.9375 148.992188 284.15625 152.546875 278.929688 C 154.4375 276.148438 156.386719 272.761719 156.855469 271.4375 C 157.320312 270.113281 158.308594 264.738281 159.003906 259.507812 C 160.414062 249.261719 161.496094 244.855469 163.945312 239.351562 C 166.636719 233.324219 177.226562 222.113281 179.902344 222.46875 C 180.613281 222.5625 181.917969 222.171875 182.898438 221.535156 L 184.640625 220.4375 L 183.75 227.132812 C 182.765625 234.5625 183.207031 237.757812 185.972656 243.292969 C 186.765625 244.871094 188.292969 248.496094 189.394531 251.410156 C 191.324219 256.511719 193.046875 260.097656 193.167969 259.203125 C 193.285156 258.3125 189.566406 247.496094 188.734375 246.320312 C 188.257812 245.644531 187.492188 242.882812 187.066406 240.21875 C 186.449219 236.355469 186.429688 233.984375 187.019531 228.742188 C 187.734375 222.394531 187.8125 222.132812 188.933594 222.128906 C 190 222.125 190.097656 222.46875 189.984375 225.863281 C 189.941406 228.253906 190.121094 230.628906 190.53125 232.984375 C 191.15625 236.15625 196.089844 249.980469 197.074219 251.316406 C 197.996094 252.566406 197.761719 249.425781 196.660156 245.722656 C 194.960938 240.015625 193.550781 232.195312 193.429688 227.835938 C 193.367188 225.699219 193.277344 223.425781 193.222656 222.71875 C 193.15625 221.859375 193.386719 221.488281 193.941406 221.5625 C 194.429688 221.628906 194.871094 222.644531 195.050781 224.105469 C 195.753906 230.164062 196.941406 236.121094 198.613281 241.984375 C 200.832031 249.519531 201.765625 255.761719 201.699219 262.621094 C 201.648438 268.417969 200.628906 273.320312 199.511719 273.148438 C 199.167969 273.101562 198.089844 270.871094 197.117188 268.1875 C 194.320312 260.421875 193.460938 259.410156 194.652344 265.25 C 196.097656 272.3125 195.75 273.992188 192.230469 276.804688 C 190.640625 278.085938 189.195312 278.945312 188.949219 278.765625 Z M 248.460938 339.300781 C 246.378906 337.671875 236.949219 332.175781 230.878906 329.050781 C 223.707031 325.375 219.316406 322.234375 215.617188 318.152344 C 211.265625 313.363281 205.980469 304.660156 203.921875 298.90625 C 202.371094 294.601562 200.359375 286.144531 200.003906 282.414062 C 199.867188 281.015625 200.300781 276.601562 200.574219 276.636719 C 201.167969 276.871094 201.742188 277.144531 202.300781 277.453125 C 203.554688 278.101562 204.261719 279.496094 206.332031 285.414062 C 207.71875 289.378906 210.171875 295.476562 211.816406 299.046875 C 218.46875 313.503906 222.738281 318.71875 232.109375 323.796875 C 235.136719 325.441406 238.628906 327.667969 239.863281 328.738281 C 242.382812 330.941406 250.503906 340.90625 248.460938 339.300781 Z M 256.953125 343.082031 C 255.15625 341.558594 251.101562 337.441406 247.902344 333.886719 C 242.921875 328.363281 241.074219 326.757812 234.867188 322.605469 C 224.945312 315.964844 220.914062 311.308594 215.410156 300.109375 C 213.226562 295.667969 208.859375 284.667969 208.945312 283.816406 C 208.972656 283.613281 210.285156 283.449219 211.824219 283.449219 C 213.359375 283.453125 214.847656 283.699219 215.050781 283.988281 C 215.257812 284.273438 216.21875 287.230469 217.195312 290.605469 C 219.355469 298.078125 222.46875 304.359375 225.496094 307.351562 C 226.761719 308.601562 230.402344 311.492188 233.5625 313.75 C 238.617188 317.367188 239.84375 318.582031 243.589844 323.707031 C 251.050781 333.90625 257.785156 342.6875 259.800781 344.839844 C 262.078125 347.273438 261.402344 346.855469 256.953125 343.082031 Z M 268.292969 347.484375 C 270.390625 349.71875 271.902344 351.527344 271.644531 351.492188 C 270.90625 351.394531 264.523438 346.207031 261.652344 343.382812 C 260.308594 342.054688 255.90625 336.320312 251.90625 330.679688 C 244.316406 319.984375 241.085938 316.484375 235.003906 312.359375 C 230.730469 309.390625 227.320312 305.640625 224.769531 301.105469 C 222.527344 297.027344 217.699219 285.515625 217.960938 284.871094 C 218.082031 284.566406 219.894531 284.421875 221.960938 284.554688 L 225.734375 284.789062 L 226.703125 286.914062 C 227.230469 288.078125 228.402344 291.15625 229.296875 293.726562 C 232.550781 303.089844 236.570312 309 248.570312 322.0625 C 251.109375 324.832031 255.703125 330.742188 258.820312 335.253906 C 261.941406 339.769531 266.179688 345.234375 268.292969 347.484375 Z M 235.097656 283.589844 C 236.039062 285.011719 238.65625 288.722656 240.851562 291.78125 C 245.800781 298.65625 249.636719 306.042969 254.4375 317.902344 C 258.421875 327.742188 258.90625 328.730469 263.386719 336.121094 C 265.835938 340.167969 264.652344 338.835938 256.320312 328.210938 C 250.8125 321.183594 244.160156 312.742188 241.539062 309.453125 C 238.078125 305.113281 236 301.796875 233.960938 297.375 C 232.425781 294.03125 230.273438 289.757812 229.203125 287.90625 C 228.132812 286.058594 227.269531 284.4375 227.285156 284.324219 C 227.296875 284.210938 228.375 283.339844 229.609375 282.453125 C 230.84375 281.5625 232.246094 280.824219 232.644531 280.875 C 233.046875 280.929688 234.167969 282.191406 235.097656 283.589844 Z M 306.460938 294.203125 C 306.449219 294.289062 302.566406 293.832031 297.808594 293.183594 L 289.183594 292.011719 L 279.984375 287.53125 C 271.21875 283.257812 259.132812 276.636719 254.726562 273.6875 C 253.589844 272.925781 250.597656 270.503906 248.019531 268.273438 C 244.058594 264.820312 243.398438 264 243.566406 262.730469 C 243.675781 261.894531 243.972656 261.148438 244.242188 261.039062 C 244.511719 260.925781 246.863281 262.761719 249.429688 265.078125 C 254.269531 269.445312 267.644531 278.609375 273.191406 281.359375 C 275.3125 282.414062 278.800781 283.398438 283.992188 284.414062 C 288.191406 285.234375 293.046875 286.492188 294.773438 287.207031 C 297.546875 288.355469 306.535156 293.746094 306.453125 294.214844 Z M 265.691406 255.460938 C 269.945312 259.925781 272.511719 262.023438 279.167969 266.414062 C 290.910156 274.195312 302.832031 284.09375 308.3125 290.644531 C 310.828125 293.65625 310.015625 293.0625 302.640625 286.539062 C 291.300781 276.519531 283.628906 271.855469 271.554688 267.691406 C 267.027344 266.125 262.105469 264.082031 260.566406 263.121094 C 258.214844 261.679688 257.824219 261.550781 258.140625 262.402344 C 259.03125 264.78125 263.75 267.636719 270.082031 269.640625 C 276.105469 271.554688 283.882812 275.398438 289.613281 279.304688 C 292.25 281.101562 298.226562 286.304688 297.914062 286.535156 C 297.816406 286.605469 296.042969 285.976562 294.023438 285.167969 C 291.117188 284.066406 288.167969 283.113281 285.164062 282.316406 C 276.101562 279.941406 274.464844 279.125 259.105469 269.316406 C 255.71875 267.152344 245.847656 258.871094 245.898438 258.230469 C 245.910156 258.140625 246.691406 256.921875 247.671875 255.511719 C 248.652344 254.101562 249.65625 252.976562 249.945312 253.015625 C 250.234375 253.054688 251.890625 254.816406 253.628906 256.941406 C 255.371094 259.0625 256.898438 260.6875 257.054688 260.558594 C 257.609375 260.136719 254.09375 254.003906 252.695312 252.949219 C 251 251.671875 250.96875 251.53125 252.105469 250.324219 C 252.722656 249.667969 253.953125 249.496094 256.695312 249.6875 L 260.441406 249.941406 Z M 261.089844 243.824219 C 261.597656 244.242188 261.417969 244.542969 260.394531 245.027344 C 258.582031 245.894531 256.390625 246.273438 256.503906 245.703125 C 256.546875 245.480469 257.136719 244.78125 257.789062 244.179688 C 259.054688 242.988281 259.996094 242.890625 261.089844 243.804688 Z M 253.523438 243.667969 C 252.210938 244.878906 250.277344 246.824219 249.277344 247.972656 L 247.429688 250.070312 L 246.679688 248.371094 C 245.546875 245.800781 241.507812 241.328125 237.3125 238.003906 C 235.246094 236.367188 232.828125 234.441406 231.921875 233.726562 C 231.011719 233.011719 230.269531 232.523438 230.25 232.65625 C 230.234375 232.792969 232.703125 235.492188 235.679688 238.621094 C 242.875 246.164062 245.613281 251.339844 244.039062 254.433594 C 243.585938 255.332031 243.097656 256.066406 242.976562 256.050781 C 242.859375 256.035156 241.570312 254.371094 240.113281 252.316406 C 237.5625 248.730469 236.585938 247.867188 236.425781 249.058594 C 236.386719 249.375 237.480469 251.621094 238.851562 254.039062 C 240.488281 256.917969 241.285156 258.976562 241.152344 259.984375 L 240.949219 261.503906 L 238.378906 258.429688 C 234.34375 253.605469 225.835938 245.359375 225.417969 245.871094 C 224.839844 246.582031 227.652344 250.355469 230.792969 253.085938 C 234.464844 256.289062 238.328125 261.320312 239.371094 264.269531 C 240.878906 268.515625 240.441406 273.566406 238.589844 273.320312 C 238.164062 273.265625 236.597656 270.820312 235.121094 267.910156 C 232.496094 262.71875 226.984375 255.117188 226.246094 255.667969 C 226.050781 255.8125 227.203125 257.808594 228.800781 260.097656 C 231.675781 264.214844 237.460938 275.027344 237.328125 276.039062 C 237.226562 276.800781 233.574219 278.253906 232.214844 278.074219 C 230.851562 277.890625 229.859375 276.214844 223.601562 263.886719 C 221.660156 260.0625 219.878906 256.886719 219.648438 256.859375 C 218.972656 256.753906 223.308594 268.316406 225.914062 273.558594 C 228.769531 279.3125 228.511719 280 223.660156 279.59375 L 220.347656 279.3125 L 220.265625 275.523438 C 220.148438 269.761719 219.363281 265.285156 217.789062 261.195312 C 217.011719 259.203125 215.898438 255.007812 215.339844 251.953125 C 214.78125 248.898438 213.8125 245.28125 213.226562 243.980469 C 212.078125 241.433594 208.992188 236.351562 208.722656 236.570312 C 208.632812 236.644531 210.335938 242 212.527344 248.519531 C 217.003906 261.839844 217.800781 265.585938 217.863281 273.609375 C 217.90625 279.679688 217.746094 280.03125 214.984375 279.667969 C 214.203125 279.5625 213.421875 279.570312 212.640625 279.699219 C 211.871094 279.898438 211.875 279.066406 212.667969 273.105469 C 213.40625 267.546875 213.433594 265.691406 212.839844 263.144531 C 211.910156 259.191406 209.539062 253.328125 209.175781 254.089844 C 209.015625 254.421875 209.398438 257.472656 210.03125 260.910156 C 211.058594 266.527344 211.101562 267.734375 210.359375 273.328125 C 209.90625 276.730469 209.335938 279.5 209.089844 279.46875 C 208.847656 279.4375 208.023438 278.554688 207.25 277.492188 C 206.476562 276.433594 205.324219 275.285156 204.664062 274.914062 C 203.527344 274.28125 203.515625 274.070312 204.382812 270.03125 C 205.082031 266.789062 205.199219 263.886719 204.921875 257.464844 C 204.589844 249.675781 204.148438 247.089844 201.492188 237.367188 C 200.664062 234.328125 198.914062 224.351562 199.171875 224.125 C 199.230469 224.074219 200.425781 223.804688 201.847656 223.519531 C 203.269531 223.238281 204.433594 223.0625 204.445312 223.121094 C 204.457031 223.183594 205.046875 224.398438 205.738281 225.824219 C 206.582031 227.5625 209.660156 230.960938 215.140625 236.199219 C 219.625 240.488281 223.40625 243.894531 223.550781 243.785156 C 223.699219 243.675781 221.933594 241.359375 219.585938 238.59375 C 210.65625 228.074219 208.480469 224.503906 208.035156 219.609375 L 207.832031 217.289062 L 209.890625 217 C 211.042969 216.84375 211.988281 216.777344 212.039062 216.859375 C 212.085938 216.9375 212.792969 218.742188 213.609375 220.875 C 214.707031 223.546875 216.039062 226.101562 217.601562 228.535156 C 220.035156 232.214844 225.710938 238.609375 226.648438 238.734375 C 226.902344 238.765625 228.710938 240.421875 230.628906 242.402344 C 232.550781 244.386719 234.304688 245.890625 234.496094 245.746094 C 235.148438 245.265625 232.621094 241.453125 228.511719 236.703125 C 222.382812 229.609375 219.65625 225.71875 216.980469 220.1875 C 214.746094 215.578125 214.632812 215.132812 215.613281 214.601562 C 216.527344 214.101562 217.042969 214.480469 219.367188 217.390625 C 220.820312 219.214844 222.144531 220.679688 222.242188 220.597656 C 222.339844 220.515625 221.5 218.609375 220.378906 216.390625 C 217.378906 210.441406 218.324219 210.046875 223.222656 215.214844 C 226.074219 218.164062 229.226562 220.742188 232.683594 222.953125 C 235.671875 224.867188 239.023438 227.414062 240.199219 228.660156 C 241.378906 229.910156 242.480469 230.789062 242.667969 230.640625 C 243.242188 230.1875 238.738281 225.046875 235.699219 222.683594 C 230.390625 218.554688 229.207031 217.34375 224.492188 211.246094 C 221.449219 207.308594 220 204.996094 220.277344 204.484375 C 220.601562 203.898438 221.125 204.3125 222.476562 206.191406 C 224.191406 208.570312 233.203125 215.015625 238.058594 217.328125 C 239.234375 217.890625 240.988281 219.613281 242.484375 221.675781 C 244.230469 224.054688 246.34375 226.046875 248.824219 227.652344 C 252.539062 230.125 252.753906 230.382812 254.472656 234.621094 C 255.445312 237.042969 256.179688 239.582031 256.09375 240.242188 C 256.007812 240.898438 254.835938 242.460938 253.523438 243.667969 Z M 264.972656 204.972656 C 266.261719 205.675781 267.277344 206.453125 267.242188 206.714844 C 267.167969 207.292969 258 210.574219 254.777344 211.160156 C 252.167969 211.644531 251.800781 212.574219 254.285156 212.449219 C 257.289062 212.285156 264.59375 210.8125 266.703125 209.929688 C 269.378906 208.808594 269.917969 208.96875 274.535156 212.277344 C 278.570312 215.171875 280.753906 217.878906 279.898438 218.929688 C 279.640625 219.25 277.914062 219.308594 276.027344 219.066406 C 271.003906 218.414062 260.121094 217.964844 258.132812 218.324219 C 256.976562 218.535156 260.144531 219.035156 268.015625 219.878906 C 274.367188 220.5625 279.765625 221.039062 279.988281 220.941406 C 280.570312 220.667969 281.304688 222.84375 281.121094 224.308594 L 280.957031 225.5625 L 273.128906 224.367188 C 264 222.96875 263.792969 223.691406 272.722656 225.820312 C 275.972656 226.589844 279.105469 227.285156 279.652344 227.359375 C 280.96875 227.535156 280.761719 228.996094 279.132812 231.015625 C 277.460938 233.085938 275.035156 233.265625 271.476562 231.589844 C 270.007812 230.898438 266.511719 229.898438 263.65625 229.359375 C 258.511719 228.394531 258.492188 228.390625 259.527344 229.582031 C 260.171875 230.328125 261.804688 231.085938 263.816406 231.566406 C 267.101562 232.363281 271.78125 234.390625 272.570312 235.375 C 273.363281 236.359375 271.585938 238.394531 267.75 240.8125 C 264.148438 243.085938 264.050781 243.105469 262.410156 242.140625 C 260.507812 241.039062 260.398438 240.820312 259.5625 236.71875 C 258.828125 233.125 253.027344 225.417969 249.246094 223.007812 C 246.792969 221.445312 246.757812 221.378906 248.296875 221.355469 C 249.371094 221.339844 249.035156 221.1875 247.265625 220.898438 C 245.179688 220.558594 244.398438 220.128906 243.496094 218.828125 C 242.882812 217.949219 242.382812 216.984375 242.414062 216.769531 C 242.441406 216.550781 241.425781 215.367188 240.101562 214.117188 C 238.425781 212.539062 236.914062 211.683594 234.902344 211.191406 C 231.578125 210.371094 229.742188 209.164062 225.890625 205.289062 C 222.980469 202.359375 222.726562 201.652344 224.066406 200.238281 C 224.769531 199.484375 225.089844 199.5 226.6875 200.304688 C 227.699219 200.808594 229.855469 202.28125 231.542969 203.613281 C 234.566406 205.996094 234.605469 206.015625 241.195312 206.890625 L 247.8125 207.769531 L 255.234375 205.722656 L 262.640625 203.699219 Z M 278.710938 165.28125 C 279.109375 166.664062 279.109375 166.664062 264.484375 172.964844 L 262.386719 173.863281 L 263.667969 172.730469 C 264.371094 172.101562 267.773438 169.882812 271.296875 167.78125 C 274.824219 165.679688 277.816406 163.980469 278.003906 163.988281 C 278.195312 164 278.503906 164.5625 278.710938 165.28125 Z M 266.648438 147.535156 C 267.03125 147.945312 267.636719 149.332031 267.988281 150.601562 C 269.304688 155.355469 269.335938 155.273438 265.59375 157.453125 C 263.65625 158.582031 259.882812 160.996094 257.191406 162.820312 C 253.832031 165.035156 250.359375 167.054688 246.773438 168.882812 C 241.183594 171.660156 240.273438 172.351562 241.964844 172.578125 C 243.96875 172.84375 257.742188 166.433594 263.1875 162.699219 C 264.945312 161.496094 267.46875 159.875 268.75 159.15625 L 271.082031 157.8125 L 273.824219 159.800781 C 275.332031 160.890625 276.546875 161.957031 276.519531 162.15625 C 276.496094 162.355469 274.375 163.695312 271.785156 165.148438 C 269.191406 166.597656 264.742188 169.472656 261.859375 171.558594 C 247.492188 181.929688 243.140625 184.621094 237.851562 186.382812 C 235.011719 187.332031 231.441406 188.113281 229.953125 188.121094 C 228.464844 188.125 227.078125 188.328125 226.882812 188.558594 C 226.316406 189.242188 230.292969 189.578125 234.226562 189.195312 C 238.542969 188.769531 241.703125 187.703125 246.097656 185.195312 C 256.636719 179.179688 277.824219 169.511719 279.871094 169.785156 C 280.628906 169.886719 282.554688 175.410156 282.363281 176.929688 C 282.046875 179.320312 270.558594 185.410156 257.476562 190.109375 C 252.28125 191.960938 248.21875 193.53125 248.445312 193.570312 C 249.808594 193.800781 256.929688 191.832031 263.367188 189.445312 C 271.539062 186.421875 276.648438 183.984375 280.304688 181.367188 C 281.597656 180.4375 282.84375 179.707031 283.066406 179.738281 C 283.699219 179.820312 284.605469 185.371094 284.324219 187.460938 C 283.988281 190.007812 282.011719 191.65625 277.378906 193.265625 C 274.433594 194.351562 271.554688 195.589844 268.742188 196.980469 C 263.980469 199.363281 253.949219 202.566406 247.894531 203.632812 C 245.925781 203.980469 242.628906 204.003906 239.800781 203.691406 C 235.441406 203.210938 234.730469 202.96875 231.679688 200.960938 C 229.820312 199.738281 227.8125 198.683594 227.1875 198.597656 C 225.878906 198.421875 224.699219 196.890625 225.304688 196.175781 C 225.566406 195.867188 226.3125 195.964844 227.417969 196.457031 C 228.371094 196.867188 230.558594 197.25 232.363281 197.289062 C 236.132812 197.371094 242.996094 196.1875 243.226562 195.417969 C 243.511719 194.449219 236.171875 193.480469 233.058594 194.066406 C 228.828125 194.875 226.347656 193.699219 222.742188 189.164062 C 221.191406 187.214844 219.984375 185.386719 220.058594 185.132812 C 220.136719 184.875 221.246094 184.398438 222.511719 184.097656 C 227.292969 182.964844 230.09375 180.707031 231.25 177.058594 L 231.929688 174.914062 L 229.175781 177.15625 C 226.585938 179.261719 222.570312 180.519531 220.964844 179.722656 C 220.660156 179.574219 222.480469 177.492188 225.042969 175.0625 C 227.828125 172.390625 230.445312 169.5625 232.890625 166.578125 C 237.894531 160.214844 243.953125 153.546875 246.140625 151.976562 C 249.316406 149.714844 258.210938 145.121094 259.742188 144.945312 C 261.277344 144.773438 265.539062 146.367188 266.636719 147.535156 Z M 254.480469 142.953125 C 254.222656 142.917969 254.546875 141.472656 255.1875 139.746094 C 255.859375 137.972656 256.699219 134.011719 257.113281 130.671875 C 257.515625 127.421875 258.214844 123.253906 258.652344 121.480469 C 259.09375 119.707031 260.019531 116.007812 260.695312 113.339844 C 261.960938 108.367188 264.664062 101.359375 267.40625 95.976562 C 268.394531 93.929688 269.058594 91.78125 269.394531 89.535156 C 271.140625 76.632812 280.3125 64.972656 299.296875 51.503906 L 305.171875 47.339844 L 301.636719 51.109375 C 299.683594 53.191406 297.527344 55.984375 296.816406 57.359375 C 296.105469 58.738281 294.117188 62.40625 292.371094 65.582031 C 290.621094 68.753906 288.003906 73.523438 286.503906 76.273438 C 285.003906 79.023438 281.195312 84.933594 278.046875 89.414062 C 271.417969 98.859375 269.4375 102.640625 265.167969 114.160156 C 262.519531 121.332031 261.867188 123.78125 260.546875 131.921875 L 259.011719 141.351562 L 256.980469 142.199219 C 255.84375 142.640625 254.734375 142.988281 254.472656 142.953125 Z M 316.105469 39.570312 C 316.425781 40.015625 313.308594 44.363281 308.683594 49.921875 C 303.160156 56.5625 299.164062 64.894531 297.253906 73.742188 C 295.523438 81.761719 294.246094 84.21875 289.140625 89.324219 C 278.992188 99.484375 277.328125 102.554688 272.96875 119.167969 C 271.375 125.234375 269.183594 132.257812 268.109375 134.730469 C 267.039062 137.203125 266.0625 139.917969 265.953125 140.75 C 265.746094 142.3125 264.703125 142.546875 262.714844 141.480469 C 261.890625 141.039062 261.964844 140.113281 263.625 130.007812 C 264.816406 122.765625 266.101562 116.890625 267.390625 112.785156 C 269.996094 104.503906 271.628906 101.613281 276.175781 97.238281 C 281.566406 92.042969 285.027344 87.492188 287.628906 82.148438 C 289.824219 77.652344 295.546875 64.867188 297.253906 60.648438 C 298.546875 57.445312 300.523438 54.960938 306.3125 49.234375 C 309.207031 46.375 312.511719 43.007812 313.710938 41.675781 C 314.914062 40.347656 315.980469 39.410156 316.097656 39.574219 Z M 257.96875 82.742188 C 265.957031 66.132812 270.097656 59.835938 277.054688 53.714844 C 280.628906 50.570312 286.503906 46.832031 289.59375 45.738281 C 292.214844 44.808594 310.832031 39.777344 310.964844 39.964844 C 311.039062 40.058594 307.046875 42.980469 302.054688 46.476562 C 288.675781 55.855469 283.828125 59.691406 280.214844 63.769531 C 272.820312 72.117188 269.550781 78.46875 267.21875 89.082031 C 266.308594 93.21875 265.484375 95.445312 263.746094 98.414062 C 260.605469 103.847656 258.410156 109.636719 257.15625 115.785156 C 256.597656 118.535156 255.945312 120.785156 255.71875 120.753906 C 255.492188 120.726562 254.988281 120.046875 254.613281 119.25 C 254.007812 117.976562 254.050781 117.632812 254.945312 116.367188 C 255.5625 115.421875 255.972656 114.394531 256.179688 113.285156 C 256.296875 112.386719 257.140625 109.953125 258.019531 107.9375 C 259.125 105.449219 260.183594 101.492188 261.277344 95.785156 C 264.742188 77.722656 268.386719 71.878906 285.046875 57.6875 C 288.875 54.421875 292.15625 51.480469 292.320312 51.152344 C 292.886719 50.019531 287.238281 53.707031 280.363281 58.957031 C 272.722656 64.789062 268.316406 69.675781 265.441406 75.523438 C 263.121094 80.191406 259.722656 90.882812 258.222656 98.199219 C 257.570312 101.359375 256.320312 105.425781 255.421875 107.328125 C 254.5625 109.121094 253.804688 110.953125 253.148438 112.828125 L 252.511719 114.910156 L 251.195312 112.792969 C 250.476562 111.632812 248.730469 109.703125 247.34375 108.535156 C 244.492188 106.128906 244.335938 106.902344 249.261719 99.199219 C 251.003906 96.464844 254.90625 89.089844 257.960938 82.734375 Z M 241.253906 102.136719 L 240.15625 104.476562 L 240.75 99.792969 C 241.085938 96.894531 241.183594 93.984375 241.03125 91.066406 C 240.851562 88.238281 240.820312 85.40625 240.933594 82.570312 C 241.070312 79.820312 240.914062 78.210938 240.535156 78.378906 C 239.875 78.667969 239.113281 87.734375 239.285156 93.199219 C 239.296875 95.5625 239.054688 97.898438 238.5625 100.207031 C 237.800781 103.566406 237.636719 103.839844 236.453125 103.683594 C 235.359375 103.539062 235.144531 103.082031 234.996094 100.558594 C 234.464844 91.785156 235.796875 84.914062 240.0625 74.460938 C 243.894531 65.074219 244.851562 62.136719 246.746094 53.949219 C 248.375 46.960938 250.925781 41.515625 256.121094 33.957031 C 259.808594 28.585938 259.816406 28.699219 256.382812 37.34375 C 251.289062 50.152344 250.910156 51.679688 247.699219 71.960938 C 244.667969 91.136719 243.265625 97.6875 241.234375 102.125 Z M 241.253906 102.136719 " fill-opacity="1" fill-rule="nonzero"/></g></g></g></g><g clip-path="url(#84166baf32)"><g clip-path="url(#a07b28a816)"><g clip-path="url(#42b8463552)"><g clip-path="url(#fd993e687f)"><path fill="#bf895c" d="M 135.679688 174.464844 C 135.699219 174.300781 135.277344 173.871094 134.679688 173.457031 C 134.082031 173.042969 133.644531 172.847656 133.625 172.996094 C 133.605469 173.148438 134.027344 173.578125 134.609375 174.003906 C 135.191406 174.429688 135.65625 174.632812 135.679688 174.464844 Z M 135.679688 174.464844 " fill-opacity="1" fill-rule="nonzero"/></g></g></g></g><g clip-path="url(#97a07ee0c1)"><g clip-path="url(#a58de289b4)"><g clip-path="url(#e77331ab59)"><g clip-path="url(#b8d2bafeef)"><path fill="#bf895c" d="M 156.332031 176.492188 C 156.167969 176.613281 156.785156 177.480469 157.679688 178.367188 C 159.671875 180.390625 161.136719 181.1875 164.574219 182.136719 L 167.304688 182.886719 L 164.523438 180.566406 C 161.882812 178.375 157.027344 175.957031 156.332031 176.492188 Z M 156.332031 176.492188 " fill-opacity="1" fill-rule="nonzero"/></g></g></g></g><g clip-path="url(#c3f03952a9)"><g clip-path="url(#043723c6b0)"><g clip-path="url(#364e50adb2)"><g clip-path="url(#b5d843469a)"><path fill="#bf895c" d="M 138.914062 226.257812 C 142.726562 225.992188 150.007812 222.492188 154.394531 218.816406 C 156.449219 217.097656 156.140625 217.179688 146.601562 220.871094 C 138.746094 223.910156 133.324219 226.742188 135.792969 226.503906 C 136.40625 226.445312 137.839844 226.320312 138.914062 226.257812 Z M 138.914062 226.257812 " fill-opacity="1" fill-rule="nonzero"/></g></g></g></g><g clip-path="url(#a6ac9d8473)"><g clip-path="url(#9cd6d5b3a8)"><g clip-path="url(#00b99c9bea)"><g clip-path="url(#cce49d3bae)"><path fill="#bf895c" d="M 201.144531 148.113281 C 201.503906 148.832031 203.902344 144.113281 205.503906 139.539062 C 205.96875 138.183594 205.769531 138.292969 203.925781 140.457031 C 201.757812 142.980469 200.425781 146.660156 201.144531 148.113281 Z M 201.144531 148.113281 " fill-opacity="1" fill-rule="nonzero"/></g></g></g></g><g clip-path="url(#9a34044cc2)"><g clip-path="url(#46b380896f)"><g clip-path="url(#861d381dbe)"><g clip-path="url(#562af83011)"><path fill="#bf895c" d="M 172.707031 235.140625 C 172.148438 234.417969 171.601562 235.316406 170.355469 238.984375 C 167.796875 246.519531 167.25 248.59375 166.707031 252.871094 L 166.148438 257.265625 L 168.125 252.792969 C 170.082031 248.367188 173.308594 235.929688 172.707031 235.140625 Z M 172.707031 235.140625 " fill-opacity="1" fill-rule="nonzero"/></g></g></g></g><g clip-path="url(#140847820e)"><g clip-path="url(#1caf6dfa34)"><g clip-path="url(#d41ca8875e)"><g clip-path="url(#deae612cf3)"><path fill="#bf895c" d="M 177.703125 241.394531 C 177.355469 244.175781 177.519531 245.433594 178.578125 248.246094 C 179.292969 250.152344 179.992188 251.46875 180.128906 251.191406 C 180.265625 250.917969 180.042969 248.464844 179.628906 245.753906 C 179.210938 243.039062 178.96875 240.054688 179.09375 239.132812 C 179.226562 238.140625 179.074219 237.566406 178.714844 237.726562 C 178.355469 237.886719 177.941406 239.511719 177.703125 241.394531 Z M 177.703125 241.394531 " fill-opacity="1" fill-rule="nonzero"/></g></g></g></g><g clip-path="url(#f9de7b9e20)"><g clip-path="url(#ac56ad4cc3)"><g clip-path="url(#8d20a0423a)"><g clip-path="url(#351599f6bb)"><path fill="#bf895c" d="M 237.859375 165.390625 C 236.695312 166.875 236.816406 166.847656 241.09375 164.730469 C 243.515625 163.527344 247.851562 161.136719 250.628906 159.460938 C 257.339844 155.425781 260.347656 154.050781 263.890625 153.394531 C 267.4375 152.742188 268.332031 152.210938 267.304688 151.359375 C 266.230469 150.476562 263.078125 150.71875 260.160156 151.914062 C 251.144531 155.585938 240.507812 162.015625 237.859375 165.390625 Z M 237.859375 165.390625 " fill-opacity="1" fill-rule="nonzero"/></g></g></g></g></svg>