<svg xmlns="http://www.w3.org/2000/svg" xmlns:xlink="http://www.w3.org/1999/xlink" width="500" zoomAndPan="magnify" viewBox="0 0 375 374.999991" height="500" preserveAspectRatio="xMidYMid meet" version="1.0"><defs><clipPath id="a9e962f37e"><path d="M 47.0625 45 L 328.3125 45 L 328.3125 337.5 L 47.0625 337.5 Z M 47.0625 45 " clip-rule="nonzero"/></clipPath></defs><g clip-path="url(#a9e962f37e)"><path fill="#000000" d="M 232.550781 239.011719 L 264.070312 195.878906 C 264.921875 194.714844 265.746094 193.527344 266.542969 192.324219 C 267.339844 191.121094 268.109375 189.898438 268.851562 188.660156 C 269.59375 187.421875 270.304688 186.164062 270.988281 184.894531 C 271.675781 183.621094 272.328125 182.335938 272.953125 181.03125 C 273.578125 179.730469 274.171875 178.414062 274.738281 177.085938 C 275.300781 175.757812 275.835938 174.417969 276.335938 173.0625 C 276.839844 171.710938 277.3125 170.34375 277.75 168.96875 C 278.191406 167.59375 278.601562 166.210938 278.976562 164.816406 C 279.351562 163.421875 279.699219 162.019531 280.011719 160.609375 C 280.320312 159.203125 280.601562 157.785156 280.847656 156.363281 C 281.097656 154.941406 281.308594 153.511719 281.492188 152.082031 C 281.671875 150.648438 281.820312 149.214844 281.9375 147.773438 C 282.054688 146.335938 282.136719 144.894531 282.183594 143.453125 C 282.234375 142.007812 282.25 140.566406 282.234375 139.121094 C 282.21875 137.679688 282.167969 136.238281 282.085938 134.796875 C 282 133.355469 281.886719 131.914062 281.738281 130.480469 C 281.585938 129.042969 281.40625 127.613281 281.191406 126.183594 C 280.976562 124.757812 280.726562 123.335938 280.449219 121.917969 C 280.167969 120.5 279.855469 119.09375 279.511719 117.691406 C 279.164062 116.289062 278.789062 114.894531 278.378906 113.511719 C 277.96875 112.125 277.53125 110.75 277.058594 109.386719 C 276.585938 108.023438 276.082031 106.667969 275.546875 105.328125 C 275.015625 103.988281 274.449219 102.65625 273.855469 101.34375 C 273.257812 100.027344 272.632812 98.726562 271.980469 97.4375 C 271.324219 96.152344 270.640625 94.878906 269.925781 93.625 C 269.214844 92.371094 268.472656 91.128906 267.703125 89.910156 C 266.929688 88.6875 266.132812 87.484375 265.308594 86.296875 C 264.484375 85.113281 263.628906 83.949219 262.75 82.800781 C 261.871094 81.65625 260.96875 80.53125 260.035156 79.425781 C 259.105469 78.320312 258.152344 77.238281 257.171875 76.175781 C 256.191406 75.117188 255.183594 74.078125 254.15625 73.0625 C 253.128906 72.050781 252.078125 71.058594 251.003906 70.089844 C 249.929688 69.125 248.835938 68.183594 247.71875 67.265625 C 246.601562 66.351562 245.464844 65.460938 244.308594 64.59375 C 243.148438 63.730469 241.972656 62.894531 240.777344 62.082031 C 239.578125 61.273438 238.367188 60.488281 237.132812 59.734375 C 235.902344 58.980469 234.652344 58.253906 233.386719 57.554688 C 232.121094 56.859375 230.839844 56.1875 229.542969 55.550781 C 228.25 54.910156 226.9375 54.300781 225.613281 53.722656 C 224.289062 53.144531 222.953125 52.597656 221.601562 52.078125 C 220.253906 51.558594 218.894531 51.074219 217.523438 50.617188 C 216.148438 50.164062 214.769531 49.738281 213.378906 49.347656 C 211.984375 48.953125 210.585938 48.59375 209.179688 48.265625 C 207.769531 47.9375 206.355469 47.640625 204.933594 47.378906 C 203.515625 47.117188 202.085938 46.882812 200.65625 46.6875 C 199.222656 46.488281 197.789062 46.324219 196.347656 46.191406 C 194.910156 46.058594 193.46875 45.960938 192.023438 45.894531 C 190.578125 45.828125 189.132812 45.792969 187.6875 45.792969 C 186.242188 45.792969 184.796875 45.828125 183.355469 45.894531 C 181.910156 45.960938 180.46875 46.058594 179.027344 46.191406 C 177.589844 46.324219 176.152344 46.488281 174.722656 46.6875 C 173.289062 46.882812 171.863281 47.117188 170.441406 47.378906 C 169.019531 47.640625 167.605469 47.9375 166.199219 48.265625 C 164.789062 48.59375 163.390625 48.953125 162 49.347656 C 160.609375 49.738281 159.226562 50.164062 157.855469 50.617188 C 156.484375 51.074219 155.125 51.558594 153.773438 52.078125 C 152.425781 52.597656 151.089844 53.144531 149.765625 53.722656 C 148.441406 54.300781 147.128906 54.910156 145.832031 55.550781 C 144.535156 56.1875 143.257812 56.859375 141.992188 57.554688 C 140.726562 58.253906 139.476562 58.980469 138.242188 59.734375 C 137.011719 60.488281 135.796875 61.273438 134.601562 62.082031 C 133.40625 62.894531 132.226562 63.730469 131.070312 64.59375 C 129.914062 65.460938 128.777344 66.351562 127.660156 67.265625 C 126.542969 68.183594 125.445312 69.125 124.371094 70.089844 C 123.300781 71.058594 122.25 72.050781 121.21875 73.0625 C 120.191406 74.078125 119.1875 75.117188 118.207031 76.175781 C 117.226562 77.238281 116.273438 78.320312 115.339844 79.425781 C 114.410156 80.53125 113.503906 81.65625 112.625 82.800781 C 111.746094 83.949219 110.894531 85.113281 110.070312 86.296875 C 109.242188 87.484375 108.445312 88.6875 107.675781 89.910156 C 106.90625 91.128906 106.164062 92.371094 105.449219 93.625 C 104.738281 94.878906 104.054688 96.152344 103.398438 97.4375 C 102.742188 98.726562 102.117188 100.027344 101.523438 101.34375 C 100.925781 102.65625 100.363281 103.988281 99.828125 105.328125 C 99.292969 106.667969 98.792969 108.023438 98.320312 109.386719 C 97.847656 110.75 97.40625 112.125 97 113.511719 C 96.589844 114.894531 96.210938 116.289062 95.867188 117.691406 C 95.523438 119.09375 95.210938 120.5 94.929688 121.917969 C 94.648438 123.335938 94.402344 124.757812 94.1875 126.183594 C 93.972656 127.613281 93.789062 129.042969 93.640625 130.480469 C 93.492188 131.914062 93.375 133.355469 93.292969 134.796875 C 93.210938 136.238281 93.160156 137.679688 93.144531 139.121094 C 93.125 140.566406 93.144531 142.007812 93.191406 143.453125 C 93.242188 144.894531 93.324219 146.335938 93.441406 147.773438 C 93.554688 149.214844 93.703125 150.648438 93.886719 152.082031 C 94.066406 153.511719 94.28125 154.941406 94.527344 156.363281 C 94.777344 157.785156 95.054688 159.203125 95.367188 160.609375 C 95.679688 162.019531 96.023438 163.421875 96.402344 164.816406 C 96.777344 166.210938 97.183594 167.59375 97.625 168.96875 C 98.066406 170.34375 98.539062 171.710938 99.039062 173.0625 C 99.542969 174.417969 100.078125 175.757812 100.640625 177.085938 C 101.207031 178.414062 101.800781 179.730469 102.425781 181.03125 C 103.050781 182.335938 103.703125 183.621094 104.386719 184.894531 C 105.070312 186.164062 105.785156 187.421875 106.527344 188.660156 C 107.265625 189.898438 108.035156 191.121094 108.835938 192.324219 C 109.632812 193.527344 110.457031 194.714844 111.308594 195.878906 L 142.835938 239.023438 C 90.460938 244.84375 47.0625 261.039062 47.0625 286.917969 C 47.0625 319.972656 117.804688 337.265625 187.6875 337.265625 C 257.570312 337.265625 328.3125 319.972656 328.3125 286.917969 C 328.3125 261.035156 284.925781 244.828125 232.550781 239.011719 Z M 124.167969 186.507812 C 122.75 184.566406 121.425781 182.566406 120.191406 180.503906 C 118.957031 178.441406 117.820312 176.328125 116.78125 174.160156 C 115.738281 171.992188 114.800781 169.785156 113.964844 167.53125 C 113.128906 165.28125 112.394531 162.992188 111.769531 160.675781 C 111.144531 158.355469 110.625 156.011719 110.210938 153.644531 C 109.800781 151.277344 109.5 148.894531 109.308594 146.5 C 109.113281 144.105469 109.03125 141.707031 109.058594 139.304688 C 109.089844 136.902344 109.226562 134.507812 109.472656 132.117188 C 109.722656 129.726562 110.078125 127.355469 110.546875 124.996094 C 111.011719 122.640625 111.585938 120.308594 112.265625 118.007812 C 112.945312 115.703125 113.730469 113.433594 114.621094 111.199219 C 115.507812 108.96875 116.5 106.78125 117.589844 104.640625 C 118.679688 102.496094 119.863281 100.410156 121.144531 98.378906 C 122.425781 96.34375 123.800781 94.375 125.261719 92.46875 C 126.726562 90.558594 128.273438 88.722656 129.902344 86.957031 C 131.535156 85.191406 133.246094 83.503906 135.03125 81.894531 C 136.816406 80.289062 138.675781 78.765625 140.601562 77.324219 C 142.527344 75.886719 144.515625 74.539062 146.566406 73.28125 C 148.617188 72.027344 150.722656 70.867188 152.878906 69.804688 C 155.035156 68.738281 157.238281 67.777344 159.484375 66.914062 C 161.726562 66.054688 164.007812 65.296875 166.324219 64.644531 C 168.640625 63.992188 170.980469 63.445312 173.34375 63.007812 C 175.710938 62.570312 178.089844 62.238281 180.484375 62.019531 C 182.882812 61.800781 185.28125 61.691406 187.6875 61.691406 C 190.09375 61.691406 192.492188 61.800781 194.890625 62.019531 C 197.285156 62.238281 199.664062 62.570312 202.03125 63.007812 C 204.394531 63.445312 206.734375 63.992188 209.050781 64.644531 C 211.367188 65.296875 213.648438 66.054688 215.890625 66.914062 C 218.136719 67.777344 220.339844 68.738281 222.496094 69.804688 C 224.652344 70.867188 226.757812 72.027344 228.808594 73.28125 C 230.859375 74.539062 232.847656 75.886719 234.773438 77.324219 C 236.699219 78.765625 238.558594 80.289062 240.34375 81.894531 C 242.128906 83.503906 243.839844 85.191406 245.472656 86.957031 C 247.101562 88.722656 248.648438 90.558594 250.113281 92.46875 C 251.574219 94.375 252.949219 96.34375 254.230469 98.378906 C 255.511719 100.410156 256.695312 102.496094 257.785156 104.640625 C 258.875 106.78125 259.867188 108.96875 260.753906 111.199219 C 261.644531 113.433594 262.429688 115.703125 263.109375 118.007812 C 263.789062 120.308594 264.363281 122.640625 264.828125 124.996094 C 265.296875 127.355469 265.652344 129.726562 265.902344 132.117188 C 266.148438 134.507812 266.285156 136.902344 266.316406 139.304688 C 266.34375 141.707031 266.261719 144.105469 266.066406 146.5 C 265.875 148.894531 265.574219 151.277344 265.164062 153.644531 C 264.75 156.011719 264.230469 158.355469 263.605469 160.675781 C 262.980469 162.992188 262.246094 165.28125 261.410156 167.53125 C 260.574219 169.785156 259.636719 171.992188 258.59375 174.160156 C 257.554688 176.328125 256.417969 178.441406 255.183594 180.503906 C 253.949219 182.566406 252.625 184.566406 251.207031 186.507812 L 187.6875 273.433594 Z M 187.6875 321.367188 C 111.5625 321.367188 62.980469 300.964844 62.980469 286.917969 C 62.980469 275.097656 97.46875 258.824219 153.742188 253.953125 L 181.257812 291.605469 C 181.441406 291.855469 181.640625 292.097656 181.851562 292.324219 C 182.0625 292.554688 182.289062 292.769531 182.527344 292.972656 C 182.765625 293.175781 183.011719 293.363281 183.273438 293.535156 C 183.53125 293.707031 183.800781 293.863281 184.082031 294.007812 C 184.359375 294.148438 184.644531 294.273438 184.9375 294.378906 C 185.230469 294.488281 185.53125 294.578125 185.832031 294.648438 C 186.136719 294.722656 186.445312 294.777344 186.753906 294.8125 C 187.0625 294.851562 187.375 294.867188 187.6875 294.867188 C 188 294.867188 188.3125 294.851562 188.621094 294.8125 C 188.929688 294.777344 189.238281 294.722656 189.542969 294.648438 C 189.84375 294.578125 190.144531 294.488281 190.4375 294.378906 C 190.730469 294.273438 191.015625 294.148438 191.292969 294.007812 C 191.574219 293.863281 191.84375 293.707031 192.101562 293.535156 C 192.363281 293.363281 192.609375 293.175781 192.847656 292.972656 C 193.085938 292.769531 193.3125 292.554688 193.523438 292.324219 C 193.734375 292.097656 193.933594 291.855469 194.117188 291.605469 L 221.632812 253.949219 C 277.914062 258.820312 312.394531 275.097656 312.394531 286.917969 C 312.394531 300.964844 263.8125 321.367188 187.6875 321.367188 Z M 187.6875 321.367188 " fill-opacity="1" fill-rule="nonzero"/></g><path fill="#000000" d="M 234.082031 140.21875 C 234.082031 138.703125 234.007812 137.1875 233.859375 135.679688 C 233.710938 134.167969 233.488281 132.667969 233.191406 131.179688 C 232.894531 129.691406 232.527344 128.222656 232.085938 126.769531 C 231.644531 125.316406 231.132812 123.890625 230.554688 122.488281 C 229.972656 121.085938 229.324219 119.714844 228.605469 118.378906 C 227.890625 117.039062 227.109375 115.738281 226.265625 114.476562 C 225.421875 113.214844 224.515625 112 223.554688 110.824219 C 222.589844 109.652344 221.570312 108.53125 220.496094 107.457031 C 219.421875 106.382812 218.296875 105.367188 217.121094 104.402344 C 215.949219 103.441406 214.730469 102.539062 213.464844 101.695312 C 212.203125 100.851562 210.902344 100.070312 209.558594 99.355469 C 208.21875 98.640625 206.847656 97.992188 205.445312 97.414062 C 204.039062 96.832031 202.613281 96.320312 201.15625 95.878906 C 199.703125 95.441406 198.230469 95.070312 196.742188 94.777344 C 195.25 94.480469 193.75 94.257812 192.238281 94.109375 C 190.726562 93.960938 189.210938 93.886719 187.691406 93.886719 C 186.171875 93.886719 184.65625 93.960938 183.144531 94.109375 C 181.628906 94.257812 180.128906 94.480469 178.640625 94.777344 C 177.148438 95.070312 175.675781 95.441406 174.222656 95.878906 C 172.769531 96.320312 171.339844 96.832031 169.9375 97.410156 C 168.53125 97.992188 167.160156 98.640625 165.820312 99.355469 C 164.480469 100.070312 163.179688 100.851562 161.914062 101.691406 C 160.652344 102.535156 159.433594 103.4375 158.257812 104.402344 C 157.082031 105.363281 155.957031 106.382812 154.882812 107.457031 C 153.808594 108.527344 152.789062 109.652344 151.828125 110.824219 C 150.863281 111.996094 149.957031 113.214844 149.113281 114.476562 C 148.269531 115.738281 147.488281 117.039062 146.773438 118.375 C 146.058594 119.714844 145.40625 121.085938 144.828125 122.484375 C 144.246094 123.886719 143.734375 125.316406 143.292969 126.765625 C 142.851562 128.21875 142.480469 129.691406 142.1875 131.179688 C 141.890625 132.667969 141.667969 134.164062 141.519531 135.675781 C 141.367188 137.1875 141.292969 138.699219 141.292969 140.21875 C 141.292969 141.734375 141.367188 143.25 141.515625 144.757812 C 141.667969 146.269531 141.890625 147.769531 142.183594 149.257812 C 142.480469 150.746094 142.851562 152.214844 143.292969 153.667969 C 143.734375 155.117188 144.242188 156.546875 144.824219 157.949219 C 145.40625 159.351562 146.054688 160.71875 146.773438 162.058594 C 147.488281 163.398438 148.269531 164.695312 149.113281 165.957031 C 149.957031 167.21875 150.859375 168.4375 151.824219 169.609375 C 152.789062 170.785156 153.808594 171.90625 154.882812 172.980469 C 155.957031 174.054688 157.082031 175.070312 158.253906 176.035156 C 159.429688 176.996094 160.648438 177.898438 161.914062 178.742188 C 163.175781 179.585938 164.476562 180.363281 165.816406 181.078125 C 167.15625 181.796875 168.53125 182.441406 169.933594 183.023438 C 171.335938 183.605469 172.765625 184.117188 174.21875 184.554688 C 175.675781 184.996094 177.144531 185.363281 178.636719 185.660156 C 180.125 185.957031 181.628906 186.179688 183.140625 186.328125 C 184.652344 186.476562 186.167969 186.550781 187.6875 186.550781 C 189.207031 186.550781 190.722656 186.472656 192.234375 186.324219 C 193.746094 186.171875 195.246094 185.949219 196.734375 185.652344 C 198.226562 185.355469 199.695312 184.984375 201.148438 184.542969 C 202.601562 184.105469 204.03125 183.59375 205.433594 183.011719 C 206.835938 182.429688 208.207031 181.78125 209.546875 181.066406 C 210.886719 180.351562 212.1875 179.570312 213.449219 178.726562 C 214.714844 177.882812 215.933594 176.980469 217.105469 176.019531 C 218.28125 175.054688 219.40625 174.039062 220.480469 172.964844 C 221.554688 171.894531 222.570312 170.769531 223.535156 169.597656 C 224.5 168.425781 225.402344 167.210938 226.25 165.949219 C 227.09375 164.6875 227.871094 163.386719 228.589844 162.050781 C 229.304688 160.710938 229.957031 159.34375 230.539062 157.941406 C 231.121094 156.539062 231.632812 155.113281 232.074219 153.664062 C 232.515625 152.210938 232.886719 150.742188 233.183594 149.253906 C 233.480469 147.765625 233.707031 146.269531 233.855469 144.757812 C 234.007812 143.25 234.082031 141.738281 234.082031 140.21875 Z M 157.214844 140.21875 C 157.214844 139.222656 157.261719 138.226562 157.359375 137.234375 C 157.457031 136.246094 157.605469 135.257812 157.800781 134.28125 C 157.992188 133.304688 158.234375 132.339844 158.527344 131.382812 C 158.816406 130.429688 159.152344 129.492188 159.53125 128.574219 C 159.914062 127.652344 160.339844 126.75 160.8125 125.871094 C 161.28125 124.992188 161.792969 124.140625 162.347656 123.308594 C 162.902344 122.480469 163.496094 121.683594 164.128906 120.910156 C 164.765625 120.140625 165.433594 119.402344 166.140625 118.699219 C 166.84375 117.992188 167.582031 117.324219 168.355469 116.691406 C 169.125 116.058594 169.925781 115.46875 170.757812 114.914062 C 171.585938 114.359375 172.441406 113.847656 173.324219 113.378906 C 174.203125 112.90625 175.105469 112.480469 176.027344 112.101562 C 176.949219 111.71875 177.886719 111.382812 178.84375 111.09375 C 179.796875 110.804688 180.765625 110.5625 181.742188 110.367188 C 182.722656 110.175781 183.707031 110.027344 184.703125 109.929688 C 185.695312 109.832031 186.691406 109.785156 187.6875 109.785156 C 188.6875 109.785156 189.683594 109.832031 190.675781 109.929688 C 191.667969 110.027344 192.65625 110.175781 193.632812 110.367188 C 194.613281 110.5625 195.578125 110.804688 196.535156 111.09375 C 197.488281 111.382812 198.429688 111.71875 199.351562 112.101562 C 200.273438 112.480469 201.175781 112.90625 202.054688 113.378906 C 202.933594 113.847656 203.789062 114.359375 204.621094 114.914062 C 205.449219 115.464844 206.25 116.058594 207.023438 116.691406 C 207.792969 117.324219 208.53125 117.992188 209.238281 118.699219 C 209.941406 119.402344 210.613281 120.140625 211.246094 120.910156 C 211.878906 121.679688 212.472656 122.480469 213.027344 123.308594 C 213.582031 124.136719 214.09375 124.992188 214.566406 125.871094 C 215.035156 126.75 215.460938 127.652344 215.84375 128.570312 C 216.226562 129.492188 216.5625 130.429688 216.851562 131.382812 C 217.140625 132.335938 217.382812 133.304688 217.578125 134.28125 C 217.773438 135.257812 217.917969 136.242188 218.015625 137.234375 C 218.113281 138.226562 218.164062 139.222656 218.164062 140.21875 C 218.164062 141.214844 218.113281 142.210938 218.015625 143.203125 C 217.917969 144.195312 217.773438 145.179688 217.578125 146.15625 C 217.382812 147.132812 217.140625 148.097656 216.851562 149.054688 C 216.5625 150.007812 216.226562 150.945312 215.84375 151.867188 C 215.460938 152.785156 215.035156 153.6875 214.566406 154.566406 C 214.09375 155.445312 213.582031 156.296875 213.027344 157.128906 C 212.472656 157.957031 211.878906 158.753906 211.246094 159.527344 C 210.613281 160.296875 209.941406 161.035156 209.238281 161.738281 C 208.53125 162.445312 207.792969 163.113281 207.019531 163.746094 C 206.25 164.378906 205.449219 164.96875 204.617188 165.523438 C 203.789062 166.078125 202.933594 166.589844 202.054688 167.058594 C 201.171875 167.53125 200.273438 167.953125 199.351562 168.335938 C 198.429688 168.71875 197.488281 169.054688 196.535156 169.34375 C 195.578125 169.632812 194.613281 169.875 193.632812 170.066406 C 192.652344 170.261719 191.667969 170.410156 190.675781 170.507812 C 189.679688 170.605469 188.6875 170.652344 187.6875 170.652344 C 186.691406 170.652344 185.695312 170.601562 184.703125 170.503906 C 183.707031 170.40625 182.722656 170.257812 181.746094 170.0625 C 180.765625 169.867188 179.800781 169.625 178.84375 169.335938 C 177.890625 169.042969 176.953125 168.707031 176.03125 168.328125 C 175.109375 167.945312 174.207031 167.519531 173.328125 167.050781 C 172.449219 166.578125 171.59375 166.066406 170.765625 165.511719 C 169.9375 164.960938 169.136719 164.367188 168.363281 163.734375 C 167.59375 163.101562 166.855469 162.433594 166.148438 161.730469 C 165.445312 161.023438 164.773438 160.285156 164.140625 159.515625 C 163.507812 158.746094 162.914062 157.949219 162.359375 157.121094 C 161.804688 156.289062 161.292969 155.4375 160.820312 154.558594 C 160.351562 153.679688 159.925781 152.78125 159.542969 151.859375 C 159.160156 150.941406 158.824219 150.003906 158.535156 149.050781 C 158.242188 148.097656 158 147.132812 157.804688 146.152344 C 157.609375 145.175781 157.460938 144.191406 157.363281 143.203125 C 157.265625 142.210938 157.214844 141.214844 157.214844 140.21875 Z M 157.214844 140.21875 " fill-opacity="1" fill-rule="nonzero"/></svg>