<svg xmlns="http://www.w3.org/2000/svg" xmlns:xlink="http://www.w3.org/1999/xlink" width="500" zoomAndPan="magnify" viewBox="0 0 375 374.999991" height="500" preserveAspectRatio="xMidYMid meet" version="1.0"><defs><clipPath id="d1e37e8e43"><path d="M 88 7.832031 L 101 7.832031 L 101 18 L 88 18 Z M 88 7.832031 " clip-rule="nonzero"/></clipPath><clipPath id="5e98a7e6e9"><path d="M 215 348 L 237 348 L 237 367.082031 L 215 367.082031 Z M 215 348 " clip-rule="nonzero"/></clipPath><clipPath id="a854f02b8c"><path d="M 299 282 L 312.4375 282 L 312.4375 293 L 299 293 Z M 299 282 " clip-rule="nonzero"/></clipPath></defs><path fill="#bf895c" d="M 73.527344 50.082031 C 69.890625 48.570312 64.5 50.21875 63.609375 53.109375 C 62.757812 55.828125 63.210938 61.507812 64.492188 64.082031 C 66.015625 67.199219 72.855469 67.984375 75.730469 65.367188 C 80.339844 61.207031 79.0625 52.386719 73.527344 50.082031 Z M 71.914062 56.441406 C 73.453125 57.980469 71.210938 59.859375 68.894531 58.980469 C 67.085938 58.292969 67.085938 58.179688 68.894531 56.796875 C 70.207031 55.78125 71.15625 55.671875 71.914062 56.441406 Z M 71.914062 56.441406 " fill-opacity="1" fill-rule="nonzero"/><path fill="#bf895c" d="M 79.894531 116.710938 C 82.484375 111.878906 75.984375 107.96875 72.363281 112.179688 C 70.121094 114.796875 69.71875 115.875 70.160156 117.917969 C 71.054688 121.9375 77.515625 121.136719 79.894531 116.710938 Z M 79.894531 116.710938 " fill-opacity="1" fill-rule="nonzero"/><g clip-path="url(#d1e37e8e43)"><path fill="#bf895c" d="M 94.160156 7.824219 C 90.335938 7.824219 88.324219 9.457031 88.324219 12.558594 C 88.324219 13.761719 88.917969 15.339844 89.644531 16.027344 C 90.371094 16.714844 92.363281 17.285156 94.175781 17.285156 C 98 17.285156 100.011719 15.652344 100.011719 12.558594 C 100.011719 9.460938 97.984375 7.824219 94.160156 7.824219 Z M 94.160156 7.824219 " fill-opacity="1" fill-rule="nonzero"/></g><path fill="#bf895c" d="M 94.730469 167.328125 C 93.222656 170.148438 93.351562 171.007812 95.570312 173.03125 C 99.035156 176.1875 103.121094 174.570312 103.121094 170.058594 C 103.121094 165.414062 96.839844 163.382812 94.730469 167.328125 Z M 94.730469 167.328125 " fill-opacity="1" fill-rule="nonzero"/><path fill="#bf895c" d="M 113.386719 126.472656 C 116.164062 129.246094 121.429688 124.355469 118.921875 121.339844 C 117.296875 119.386719 116.40625 119.425781 114.292969 121.539062 C 112.582031 123.25 112.207031 125.292969 113.386719 126.472656 Z M 113.386719 126.472656 " fill-opacity="1" fill-rule="nonzero"/><path fill="#bf895c" d="M 124.65625 53.210938 C 122.421875 53.210938 119.019531 56.734375 119.019531 59.046875 C 119.019531 59.648438 119.789062 61.261719 120.707031 62.570312 C 122.597656 65.285156 127.648438 65.6875 129.628906 63.273438 C 132.976562 59.230469 129.996094 53.210938 124.65625 53.210938 Z M 124.65625 53.210938 " fill-opacity="1" fill-rule="nonzero"/><path fill="#bf895c" d="M 159.390625 275.355469 C 159.144531 277.667969 159.59375 278.351562 161.703125 278.894531 C 166.234375 280.050781 168.148438 279.074219 168.148438 275.609375 C 168.148438 272.632812 167.945312 272.488281 163.917969 272.488281 C 160.09375 272.488281 159.660156 272.761719 159.390625 275.355469 Z M 159.390625 275.355469 " fill-opacity="1" fill-rule="nonzero"/><path fill="#bf895c" d="M 163.617188 219.757812 C 163.566406 220.441406 163.664062 221.101562 163.910156 221.742188 C 164.15625 222.378906 164.53125 222.9375 165.027344 223.40625 C 167.339844 225.351562 170.257812 223.480469 170.257812 220.058594 C 170.257812 217.980469 169.707031 217.542969 167.089844 217.542969 C 164.671875 217.542969 163.847656 218.070312 163.617188 219.757812 Z M 163.617188 219.757812 " fill-opacity="1" fill-rule="nonzero"/><path fill="#bf895c" d="M 164.6875 134.433594 C 167.828125 137.597656 172.878906 134.433594 172.878906 129.300781 C 172.878906 125.074219 169.488281 123.285156 165.9375 125.625 C 163.113281 127.46875 162.453125 132.167969 164.6875 134.433594 Z M 164.6875 134.433594 " fill-opacity="1" fill-rule="nonzero"/><path fill="#bf895c" d="M 181.84375 64.375 C 185.238281 66.605469 189.113281 64.875 188.585938 61.355469 C 188.203125 58.738281 183.480469 56.085938 180.9375 57.058594 C 178.394531 58.03125 178.917969 62.464844 181.84375 64.375 Z M 181.84375 64.375 " fill-opacity="1" fill-rule="nonzero"/><path fill="#bf895c" d="M 192.171875 191.175781 C 190.875 188.359375 188.078125 187.394531 184.753906 188.621094 C 181.632812 189.777344 181.449219 195.289062 184.453125 196.882812 C 189.691406 199.671875 194.457031 196.140625 192.171875 191.175781 Z M 192.171875 191.175781 " fill-opacity="1" fill-rule="nonzero"/><path fill="#bf895c" d="M 207.808594 255.300781 C 198.648438 254.390625 192.191406 261.878906 195.59375 269.46875 C 196.566406 271.640625 198.445312 273.253906 201.367188 274.425781 C 207.808594 277.019531 210.375 276.695312 213.597656 272.878906 C 215.996094 270.03125 216.378906 268.753906 215.910156 265.230469 C 215.125 259.503906 212.050781 255.714844 207.808594 255.300781 Z M 208.183594 267.15625 C 206.933594 270.40625 200.355469 268.476562 200.355469 264.84375 C 200.355469 264.136719 201.566406 262.753906 202.976562 261.839844 C 207.429688 258.953125 210.238281 261.820312 208.183594 267.15625 Z M 208.183594 267.15625 " fill-opacity="1" fill-rule="nonzero"/><g clip-path="url(#5e98a7e6e9)"><path fill="#bf895c" d="M 216.410156 360.339844 C 217.773438 363.148438 224.617188 367.082031 228.140625 367.082031 C 229.542969 367.082031 232.066406 366.050781 233.574219 364.863281 C 237.503906 361.773438 237.503906 354.441406 233.574219 350.550781 C 231.136719 348.136719 230.253906 347.90625 224.921875 348.34375 C 216.464844 349.035156 213.171875 353.675781 216.410156 360.339844 Z M 228.640625 356.917969 C 229.917969 358.191406 227.03125 360.003906 225.003906 359.195312 C 223.253906 358.492188 223.292969 358.335938 225.507812 357.320312 C 226.832031 356.722656 228.261719 356.535156 228.644531 356.917969 Z M 228.640625 356.917969 " fill-opacity="1" fill-rule="nonzero"/></g><path fill="#bf895c" d="M 221.511719 139.882812 C 224.429688 141.433594 228.507812 141.222656 229.972656 139.453125 C 233.464844 135.214844 227.75 129.292969 222.214844 131.417969 C 218.78125 132.730469 218.324219 138.195312 221.511719 139.882812 Z M 221.511719 139.882812 " fill-opacity="1" fill-rule="nonzero"/><path fill="#bf895c" d="M 242.9375 83.90625 C 238.207031 83.90625 236.703125 90.988281 240.824219 93.863281 C 242.148438 94.773438 244.148438 95.476562 245.453125 95.476562 C 247.867188 95.476562 251.070312 93.003906 251.070312 91.148438 C 251.070312 89.292969 245.050781 83.90625 242.9375 83.90625 Z M 242.9375 83.90625 " fill-opacity="1" fill-rule="nonzero"/><path fill="#bf895c" d="M 253.0625 204.160156 C 252.796875 202.398438 251.996094 201.746094 250.085938 201.746094 C 248.175781 201.746094 247.375 202.382812 247.113281 204.113281 C 246.902344 205.519531 247.441406 206.753906 248.46875 207.136719 C 251.191406 208.179688 253.441406 206.722656 253.0625 204.160156 Z M 253.0625 204.160156 " fill-opacity="1" fill-rule="nonzero"/><path fill="#bf895c" d="M 255.351562 181.414062 C 257.851562 184.585938 263.875 186.867188 267.398438 185.984375 C 273.320312 184.492188 273.019531 173.09375 266.996094 169.964844 C 262.566406 167.667969 258.839844 168.03125 255.824219 171.050781 C 252.660156 174.210938 252.5 177.792969 255.351562 181.414062 Z M 264.9375 175.378906 C 266.078125 176.742188 266.03125 177.238281 264.609375 178.648438 C 263.730469 179.527344 262.144531 180.007812 261.238281 179.667969 C 259.464844 179.007812 259.234375 177.996094 260.246094 175.371094 C 261.097656 173.265625 263.1875 173.265625 264.949219 175.378906 Z M 264.9375 175.378906 " fill-opacity="1" fill-rule="nonzero"/><path fill="#bf895c" d="M 263.671875 228.75 C 261.59375 229.863281 261.253906 231.527344 262.65625 233.746094 C 263.949219 235.792969 268.484375 234.851562 268.9375 232.421875 C 269.476562 229.609375 266.257812 227.367188 263.671875 228.75 Z M 263.671875 228.75 " fill-opacity="1" fill-rule="nonzero"/><path fill="#bf895c" d="M 273.839844 302.640625 C 273.839844 299.820312 273.257812 298.726562 271.074219 297.457031 C 268.554688 295.996094 268.054688 296.011719 265.539062 297.660156 C 263.605469 298.921875 262.765625 300.425781 262.765625 302.640625 C 262.765625 304.855469 263.605469 306.355469 265.539062 307.621094 C 268.054688 309.273438 268.554688 309.273438 271.074219 307.824219 C 273.257812 306.539062 273.839844 305.441406 273.839844 302.640625 Z M 273.839844 302.640625 " fill-opacity="1" fill-rule="nonzero"/><path fill="#bf895c" d="M 265.285156 263.121094 C 267.800781 264.085938 270.347656 262.71875 269.953125 260.613281 C 269.742188 259.5 268.605469 258.800781 266.996094 258.800781 C 263.976562 258.800781 262.660156 262.117188 265.285156 263.121094 Z M 265.285156 263.121094 " fill-opacity="1" fill-rule="nonzero"/><path fill="#bf895c" d="M 283.65625 348.90625 C 284.34375 348.21875 284.914062 346.640625 284.914062 345.433594 C 284.914062 344.226562 284.34375 342.628906 283.65625 341.921875 C 282.96875 341.21875 281.390625 340.601562 280.179688 340.601562 C 278.972656 340.601562 277.398438 341.195312 276.710938 341.921875 C 276.023438 342.648438 275.449219 344.238281 275.449219 345.445312 C 275.449219 346.65625 276.023438 348.246094 276.714844 348.90625 C 277.40625 349.566406 278.976562 350.160156 280.183594 350.160156 C 281.390625 350.160156 282.96875 349.601562 283.65625 348.90625 Z M 283.65625 348.90625 " fill-opacity="1" fill-rule="nonzero"/><g clip-path="url(#a854f02b8c)"><path fill="#bf895c" d="M 301.835938 284.132812 C 299.222656 286.496094 299.191406 289.023438 301.738281 291.34375 C 305.292969 294.582031 312.40625 292.601562 312.40625 288.367188 C 312.40625 284.132812 305.066406 281.21875 301.835938 284.132812 Z M 301.835938 284.132812 " fill-opacity="1" fill-rule="nonzero"/></g><path fill="#bf895c" d="M 303.132812 214.074219 C 302.929688 215.984375 303.46875 217.285156 304.746094 217.96875 C 307.574219 219.484375 309.476562 217.847656 309.09375 214.222656 C 308.835938 211.808594 308.234375 211.207031 306.117188 211.207031 C 304.042969 211.203125 303.367188 211.859375 303.132812 214.074219 Z M 303.132812 214.074219 " fill-opacity="1" fill-rule="nonzero"/></svg>